<?xml version="1.0" encoding="utf-8"?>
<!-- Generator: Adobe Illustrator 16.0.4, SVG Export Plug-In . SVG Version: 6.00 Build 0)  -->
<!DOCTYPE svg PUBLIC "-//W3C//DTD SVG 1.1//EN" "http://www.w3.org/Graphics/SVG/1.1/DTD/svg11.dtd">
<svg version="1.1" id="Layer_1" xmlns="http://www.w3.org/2000/svg" xmlns:xlink="http://www.w3.org/1999/xlink" x="0px" y="0px"
	 width="28.692px" height="18px" viewBox="0 0 28.692 18" enable-background="new 0 0 28.692 18" xml:space="preserve">
<g>
	<path fill="#AB388D" d="M0.822,18H0c2.256-4.864,4.864-7.543,8.718-9C4.864,7.566,2.256,4.864,0,0h0.822
		c2.209,4.864,5.382,7.661,9.964,9C6.204,10.363,3.031,13.135,0.822,18z M18.729,0c2.209,4.864,5.382,7.661,9.964,9
		c-4.582,1.363-7.755,4.135-9.964,9h-0.822c1.316-2.843,1.998-5.663,2.068-8.6h-6.063c-3.924,1.48-6.72,4.16-8.765,8.6H4.348
		c2.256-4.864,4.841-7.543,8.694-9C9.188,7.566,6.604,4.864,4.348,0h0.799c2.045,4.441,4.864,7.167,8.836,8.624h5.992
		C19.928,5.687,19.246,2.867,17.906,0H18.729z"/>
</g>
</svg>
