<?xml version="1.0" encoding="utf-8"?>
<!-- Generator: Adobe Illustrator 16.0.4, SVG Export Plug-In . SVG Version: 6.00 Build 0)  -->
<!DOCTYPE svg PUBLIC "-//W3C//DTD SVG 1.1//EN" "http://www.w3.org/Graphics/SVG/1.1/DTD/svg11.dtd">
<svg version="1.1" xmlns="http://www.w3.org/2000/svg" xmlns:xlink="http://www.w3.org/1999/xlink" x="0px" y="0px"
	 viewBox="0 0 20 20" enable-background="new 0 0 20 20" xml:space="preserve">
<path d="M16.902,5.294v0.628c0,0.092-0.03,0.167-0.089,0.225c-0.058,0.06-0.134,0.089-0.225,0.089h-0.941v9.295
	c0,0.543-0.154,1.011-0.46,1.406c-0.308,0.396-0.677,0.593-1.108,0.593H5.921c-0.432,0-0.8-0.19-1.108-0.573
	c-0.307-0.383-0.461-0.844-0.461-1.387V6.235H3.412c-0.091,0-0.167-0.029-0.226-0.089C3.127,6.089,3.098,6.014,3.098,5.922V5.294
	c0-0.091,0.03-0.166,0.088-0.225C3.245,5.01,3.32,4.98,3.412,4.98h3.029l0.687-1.637c0.098-0.242,0.275-0.448,0.529-0.618
	c0.256-0.17,0.514-0.255,0.775-0.255h3.137c0.262,0,0.52,0.085,0.775,0.255c0.254,0.17,0.431,0.376,0.529,0.618l0.687,1.637h3.029
	c0.091,0,0.167,0.029,0.225,0.089C16.873,5.128,16.902,5.203,16.902,5.294z M14.393,15.53V6.235H5.607v9.295
	c0,0.144,0.023,0.275,0.069,0.396c0.046,0.121,0.093,0.21,0.143,0.265c0.048,0.056,0.083,0.083,0.103,0.083h8.157
	c0.019,0,0.053-0.027,0.103-0.083c0.049-0.055,0.097-0.144,0.143-0.265S14.393,15.674,14.393,15.53z M8.118,8.432v5.647
	c0,0.091-0.029,0.166-0.089,0.225c-0.059,0.06-0.133,0.089-0.225,0.089H7.176c-0.091,0-0.167-0.029-0.226-0.089
	c-0.059-0.059-0.088-0.134-0.088-0.225V8.432c0-0.091,0.029-0.167,0.088-0.226s0.134-0.088,0.226-0.088h0.628
	c0.091,0,0.166,0.029,0.225,0.088C8.088,8.265,8.118,8.341,8.118,8.432z M7.804,4.98h4.392l-0.47-1.146
	c-0.047-0.06-0.102-0.096-0.167-0.108H8.451C8.385,3.738,8.33,3.774,8.284,3.834L7.804,4.98z M10.628,8.432v5.647
	c0,0.091-0.03,0.166-0.089,0.225c-0.058,0.06-0.133,0.089-0.225,0.089H9.686c-0.091,0-0.167-0.029-0.225-0.089
	c-0.06-0.059-0.089-0.134-0.089-0.225V8.432c0-0.091,0.03-0.167,0.089-0.226C9.52,8.147,9.595,8.118,9.686,8.118h0.628
	c0.091,0,0.167,0.029,0.225,0.088C10.598,8.265,10.628,8.341,10.628,8.432z M13.137,8.432v5.647c0,0.091-0.03,0.166-0.088,0.225
	c-0.059,0.06-0.135,0.089-0.226,0.089h-0.628c-0.091,0-0.166-0.029-0.225-0.089c-0.059-0.059-0.088-0.134-0.088-0.225V8.432
	c0-0.091,0.029-0.167,0.088-0.226s0.134-0.088,0.225-0.088h0.628c0.091,0,0.167,0.029,0.226,0.088
	C13.107,8.265,13.137,8.341,13.137,8.432z"/>
</svg>
