<?xml version="1.0" encoding="utf-8"?>
<!-- Generator: Adobe Illustrator 16.0.4, SVG Export Plug-In . SVG Version: 6.00 Build 0)  -->
<!DOCTYPE svg PUBLIC "-//W3C//DTD SVG 1.1//EN" "http://www.w3.org/Graphics/SVG/1.1/DTD/svg11.dtd">
<svg version="1.1" id="Layer_1" xmlns="http://www.w3.org/2000/svg" xmlns:xlink="http://www.w3.org/1999/xlink" x="0px" y="0px"
	 viewBox="0 0 156 156" enable-background="new 0 0 156 156" xml:space="preserve">
<path id="body" fill="#A02022" d="M64.185,2.468c1.619,4.3-1.822,13.695-4.717,16.453c2.744,1.912,5.199,4.13,6.456,7.295
	c2.063,4.886,2.093,13.46-4.608,14.646c-4.627,0.832-9.868-1.613-14.257-2.419c1.04,4.74-0.384,10.678-5.642,13.346
	c-1.006,0.513-2.159,1.35-3.308,1.507c1.815-0.255,3.396,0.546,4.968,1.115c2.83,1.021,5.963,2.018,7.528,4.569
	c2.073,3.377,0.656,6.965,1.523,10.504c5.253,1.172,4.376,6.967,5.798,10.648c-0.981-0.442-2.451-0.085-3.542-0.269
	c-1.338-0.228-2.64-0.674-3.872-1.17c-4.5-1.829-8.025-3.956-9.939-7.956c-2.633,0.744-4.63,0.193-6.802-0.94
	c-1.178-0.612-2.155-1.474-3.035-2.357c-0.21-0.273-2.662-2.504-2.524-2.639c-3.96,4.889-18.121,6.12-23.086,3.07
	c0.837,2.589,2.728,5.149,3.996,7.745c0.604,1.269,1.163,2.678,1.122,4.067c-0.019,0.906-0.853,1.633-1.311,2.427
	c2.926,1.423,5.952,2.34,7.525,5.004c0.925,1.544,0.537,3.239,0.404,4.873c1.072,0.329,2.256,0.141,3.372,0.214
	c1.03,0.061,2.011,0.356,2.896,0.745c1.89,0.815,3.377,2.184,4.389,3.678c0.423,0.554,2.602,4.439,1.132,4.905
	c2.157-0.709,6.344-1.026,8.641-0.635c2.018,0.341,4.088,1.223,5.946,2.01c3.564,1.525,6.854,3.605,9.298,6.372
	c-4.56,0.595-9.452,1.214-14.057,1.18c-4.253-0.046-7.047-1.732-10.87-2.784c-3.623,4.586-8.305,3.452-14.284,3.828
	c-0.726,2.278-1.298,4.083-3.581,5.914c-2.038,1.568-4.943,2.483-6.744,3.968l6.314,0.228c3.451,0.095,6.953,0.207,10.32,0.942
	c3.603,0.784,5.842,2.92,8.39,4.82c0.677-0.606,2.903-0.83,3.986-0.902c2.034-0.119,4.177,0.114,6.066,0.831
	c1.656,0.617,3.864,1.989,3.923,3.689c-0.038-1.069,1.556-2.134,2.522-2.604c4.027-1.943,8.64-3.584,13.532-2.761
	c0.939,0.139,4.96,0.878,4.765,2.207c0.372-2.27,2.543-4.146,4.64-5.184c2.054-1.006,4.411-2.012,6.775-1.789
	c2.585,0.256,4.518,1.854,5.837,3.982c0.958-1.239,2.858-2.511,4.409-2.685c4.856-0.6,11.987,5.442,10.945,11.05
	c0.268-1.549,4.335-1.041,5.272-0.898c4.93,0.638,8.715,4.25,11.56,8.624c0.696,1.008,1.565,3.26,1.076,4.631
	c0.812-2.214,3.55-3.199,5.345-3.352c2.073-0.189,4.15,0.368,5.938,1.502c0.975,0.611,2.853,2.008,3.125,3.357
	c3.382-1.834,6.429-4.377,10.136-4.174c3.481,0.217,6.762,1.589,9.949,3.094l5.871,2.737c-0.729-4.18-2.938-7.351-4.157-11.181
	c-1.339-4.402-1.271-7.769-1.288-12.145c-5.733-2.22-10.482-1.706-13.036-9.912c-4.018,1.046-7.119,3.069-11.315,2.255
	c-4.54-0.881-9.22-2.705-13.641-4.212c2.877-3.131,6.443-5.515,10.129-7.297c1.936-0.923,4.086-1.981,6.143-2.342
	c2.322-0.405,6.481,0.361,8.544,1.64c-1.356-0.871,1.084-6.625,1.474-7.667c1.063-2.449,2.509-4.686,4.398-6.139
	c0.893-0.694,1.846-1.235,2.869-1.394c1.12-0.174,2.315,0.057,3.355-0.554c-0.211-2.831-0.677-5.698,0.044-8.404
	c1.307-4.762,4.13-6.625,6.683-10.071c-0.657-1.365-1.649-2.478-1.882-4.109c-0.38-2.522-0.257-5.109-0.048-7.565
	c0.376-5.033,1.582-9.775,1-15.058c-3.218,7.902-17.344,10.082-22.831,4.541c0.234,0.215-1.236,4.344-1.434,4.759
	c-0.574,1.534-1.239,3.043-2.229,4.28c-1.749,2.251-3.561,3.543-6.301,3.26c-0.798,5.925-3.837,9.609-7.92,12.72
	c-1.12,0.86-2.324,1.614-3.625,2.103c-1.055,0.404-2.552,0.195-3.449,0.864c0.819-4.727-1.313-11.43,3.447-14.2
	c-0.04-4.613-2.359-8.374-1.771-13.208c0.46-3.646,2.974-6.125,5.111-8.62c1.205-1.381,2.302-3.13,4.057-3.633
	c-1.117,0.326-2.537-0.203-3.677-0.385c-5.83-0.873-9.893-7.009-11.9-12.838c-3.227,3.407-6.488,8.655-11.003,9.96
	c-6.504,1.843-10.747-6.069-11.654-11.496c-0.52-3.552-0.044-6.902,0.758-10.33c-4.111-0.689-12.792-5.736-14.393-9.877
	L64.185,2.468z"/>
<path fill="#E1B038" d="M47.256,115.412c6.157,0.794,12.311,0.645,17.935-1.578c4.751-1.746,9.042-4.519,13.11-7.694
	c-13.131-2.023-24.383-9.513-34.093-16.347c-5.328-3.721-10.292-7.748-15.628-11.057c-2.682-1.667-5.388-3.261-8.33-4.559
	c-2.894-1.306-5.968-2.449-8.695-3.878c2.802,1.359,5.899,2.427,8.862,3.665c3.003,1.244,5.786,2.787,8.545,4.381
	c5.488,3.22,10.598,7.064,16.018,10.636c10.425,6.901,22.304,14.165,35.589,15.012l0.4-5.898c0.157-3.043,0.251-6.092,0.309-9.138
	l0.02-6.431c-1.808-7.88-5.284-16.388-10.958-22.353c-2.909-3.002-6.371-5.527-10.439-6.704c-4.02-1.298-8.391-1.373-12.662-1.172
	c4.268-0.308,8.648-0.346,12.781,0.846c4.181,1.083,7.801,3.559,10.843,6.535c2.434,2.354,4.361,5.126,6.095,8.044
	c1.721,2.958,3.04,6.141,4.205,9.406l0.012,0.034l-0.34-6.511l-0.687-9.073l-1.089-8.797l-1.239-8.227
	c-0.365-2.522-0.87-5.022-1.432-7.497l-1.52-6.786l-1.448-6.056c-0.365-1.748-0.958-3.426-1.46-5.135l-1.234-3.905l-0.787-2.468
	l-0.413-1.288l-0.129-0.393l0.266,0.762l0.657,1.921l1.106,3.331l1.433,4.354c0.604,1.734,0.955,3.539,1.449,5.301l1.584,6.341
	l1.684,7.104l1.411,7.71l1.311,8.273l1.082,8.826l0.728,8.97l0.175,2.796l0.136-0.517c0.799-3.224,1.723-6.444,2.894-9.586
	c1.143-3.132,2.601-6.227,4.203-9.16c2.143-3.891,4.811-7.653,8.43-10.25c3.5-2.731,7.636-4.31,11.767-5.542
	c-4.09,1.37-8.175,3.075-11.546,5.868c-3.498,2.684-6,6.415-8.008,10.296c-4.07,7.582-6.154,16.428-7.66,24.314l0.038,0.837
	c0.065,3.076,0.098,6.157,0.055,9.242c-0.032,3.021-0.11,6.039-0.274,9.059l-0.155,2.842c13.118,1.158,25.997-5.094,36.397-14.628
	c5.476-4.892,10.579-10.449,15.481-16.383c2.527-2.899,4.986-5.837,7.701-8.513c2.688-2.654,5.481-5.196,7.884-8.323
	c-2.335,3.229-5.065,5.876-7.669,8.631c-2.652,2.76-5.037,5.792-7.481,8.762c-4.758,6.093-9.731,11.82-15.165,16.958
	c-9.813,9.525-22.293,16.275-35.624,15.968c3.516,3.886,7.058,7.769,11.162,11.01c4.834,4.035,10.616,6.257,16.753,7.296
	c6.047,1.186,12.418,1.783,18.187,4.668c5.637,3.03,10.945,7.093,15.051,12.89c-4.241-5.588-9.649-9.417-15.313-12.193
	c-5.73-2.596-11.97-2.992-18.138-3.983c-6.156-0.812-12.522-3.035-17.61-7.079c-4.442-3.31-8.226-7.269-11.925-11.144l-0.165,1.723
	c-0.242,2.768-0.551,5.541-0.883,8.299c-0.349,2.654-0.703,5.315-1.148,7.959c-0.364,2.241-0.833,4.464-1.284,6.689
	c-0.44,1.959-0.83,3.917-1.336,5.858c-0.416,2.258-0.938,4.493-1.442,6.722c-0.24,1.14-0.789,2.442-0.846,3.602
	c-0.036,1.429,0.049,2.836,0.158,4.265c0.044,0.473,0.065,1.4-0.149,1.828c-0.454-0.582-1.727-0.777-2.413-0.991l-1.854-0.507
	c-0.499-0.075-0.989-0.051-1.48,0.134c0.328-1.146,0.862-1.744,1.62-2.636c0.597-0.697,1.068-1.482,1.409-2.334
	c0.793-1.839,1.204-3.928,1.713-5.87c0.581-1.998,1.041-4.018,1.551-6.038c0.502-2.11,1.029-4.222,1.444-6.353
	c0.504-2.32,0.945-4.654,1.363-6.991c0.435-2.596,0.863-5.184,1.202-7.803c0.37-2.653,0.649-5.311,0.922-7.979
	c-4.424,3.222-9.131,6.091-14.39,7.802c-5.928,2.144-12.639,2.005-18.739,1.005c-6.178-0.893-12.28-2.076-18.456-1.915
	c-6.144,0.271-12.247,1.066-17.855,2.468c5.526-1.526,11.595-2.491,17.792-2.933C34.87,113.705,41.114,114.726,47.256,115.412"/>
</svg>
