<?xml version="1.0" encoding="utf-8"?>
<!-- Generator: Adobe Illustrator 16.0.4, SVG Export Plug-In . SVG Version: 6.00 Build 0)  -->
<!DOCTYPE svg PUBLIC "-//W3C//DTD SVG 1.1//EN" "http://www.w3.org/Graphics/SVG/1.1/DTD/svg11.dtd">
<svg version="1.1" id="love" xmlns="http://www.w3.org/2000/svg" xmlns:xlink="http://www.w3.org/1999/xlink" x="0px" y="0px"
	 width="636.597px" height="54.971px" viewBox="0 0 636.597 54.971" enable-background="new 0 0 636.597 54.971"
	 xml:space="preserve">
<polygon fill="#CCCBCB" points="617.768,29.657 636.598,8.397 587.23,8.397 587.23,4.946 52.59,4.946 52.59,8.397 0,8.397 
	18.833,29.657 0,50.92 52.59,50.92 52.59,54.368 587.23,54.368 587.23,50.92 636.598,50.92 "/>
<polygon fill="#352014" points="636.597,3.448 0,3.448 18.834,24.71 0,45.972 636.597,45.972 617.767,24.71 "/>
<rect x="52.589" fill="#482F20" width="534.641" height="49.42"/>
<path fill="#FFFFFF" d="M97.3,20.123c0-5.72-0.12-10.078-0.4-11.559c0.44,0.079,1.2,0.079,1.76,0.079c0.92,0,1.8-0.04,2.32-0.119
	c-0.12,1.44-0.281,5.439-0.281,11.238v0.799c0,0.121,0.04,0.161,0.161,0.161h17.077c0.12,0,0.12-0.04,0.12-0.161v-0.799
	c0-5.719-0.16-9.758-0.32-11.198c0.48,0.079,1.08,0.079,1.759,0.079c0.8,0,1.72-0.04,2.32-0.119c-0.2,1.4-0.32,5.919-0.32,11.599
	v7.038c0,5.079,0.16,9.919,0.32,11.559c-0.44-0.08-1.2-0.08-1.76-0.08c-0.719,0-2.039,0.08-2.319,0.12
	c0.2-1.56,0.32-6.399,0.32-11.599v-3.719c0-0.12-0.04-0.16-0.12-0.16H100.82c-0.081,0-0.121,0.08-0.121,0.16v3.719
	c0,5.079,0.201,9.919,0.36,11.559c-0.4-0.04-1.039-0.08-1.639-0.08c-0.88,0-1.88,0.04-2.44,0.12c0.2-1.6,0.32-6.399,0.32-11.599
	V20.123z"/>
<path fill="#FFFFFF" d="M134.301,30.041c-0.08,0-0.161,0-0.161,0.08c-1.079,2.92-2.639,6.999-3.039,8.599
	c-0.4-0.08-0.72-0.08-1.52-0.08c-0.839,0-1.719,0.08-2.039,0.12c0.88-1.8,2.199-4.8,3.679-8.199l6.879-16.557
	c0.48-1.04,0.68-1.439,0.88-1.439c0.16,0,0.36,0.279,0.88,1.439c0.4,0.84,3.879,8.479,7.038,15.356
	c1.64,3.641,3.599,7.999,4.519,9.359c-0.679-0.04-1.359-0.08-1.759-0.08c-0.92,0-2.039,0.04-2.519,0.12
	c-0.561-1.56-2.4-5.959-3.52-8.639c-0.04-0.08-0.04-0.08-0.16-0.08H134.301z M142.619,27.882c0.12,0,0.12-0.04,0.12-0.12
	l-4.079-9.559l-3.68,9.559c-0.04,0.08-0.04,0.12,0.08,0.12H142.619z"/>
<path fill="#FFFFFF" d="M156.62,22.882c0-4.839-0.16-8.558-0.36-9.758c0.4,0.04,0.96,0.04,1.48,0.04c1,0,2.72-0.12,4.799-0.12
	c4.199,0,6.159,0.92,7.639,2.239c0.88,0.8,1.96,2.56,1.96,4.8c0,4.879-3.92,7.799-8.999,7.799c-0.081-0.32-0.36-1.28-0.56-1.72
	c3.319-0.16,6.279-1.68,6.279-5.56c0-2.159-0.92-3.799-2.439-4.719c-1-0.681-2.401-1-4.239-1c-0.721,0-1.84,0.04-2.121,0.16
	c-0.12,0.04-0.16,0.08-0.16,0.68v13.277c0,4.159,0.12,8.239,0.321,9.719c-0.481-0.08-1.241-0.08-1.8-0.08
	c-0.72,0-1.76,0.04-2.08,0.12c0.12-1.36,0.28-5.479,0.28-9.879V22.882z"/>
<path fill="#FFFFFF" d="M178.34,22.882c0-4.839-0.16-8.558-0.36-9.758c0.4,0.04,0.96,0.04,1.48,0.04c1,0,2.72-0.12,4.799-0.12
	c4.199,0,6.159,0.92,7.639,2.239c0.88,0.8,1.96,2.56,1.96,4.8c0,4.879-3.92,7.799-8.999,7.799c-0.08-0.32-0.36-1.28-0.56-1.72
	c3.319-0.16,6.279-1.68,6.279-5.56c0-2.159-0.92-3.799-2.439-4.719c-1-0.681-2.401-1-4.239-1c-0.721,0-1.84,0.04-2.121,0.16
	c-0.12,0.04-0.16,0.08-0.16,0.68v13.277c0,4.159,0.12,8.239,0.321,9.719c-0.481-0.08-1.241-0.08-1.8-0.08
	c-0.72,0-1.76,0.04-2.08,0.12c0.12-1.36,0.28-5.479,0.28-9.879V22.882z"/>
<path fill="#FFFFFF" d="M206.739,29.081c0-0.84-0.24-1.479-0.48-1.84c-1.24-2.199-4.679-7.679-5.799-9.438
	c-1.28-1.799-2.44-3.599-3.56-4.719c0.481,0.08,1.04,0.08,1.92,0.08c0.8,0,2.359-0.04,2.64-0.12c0.319,0.68,1.199,2.359,1.84,3.479
	c0.599,0.96,4.838,8.039,5.478,9.038c1.4-2.319,4.68-8.038,5.56-9.598c0.439-0.761,1.159-2.2,1.439-2.88
	c0.36,0.08,0.88,0.08,1.24,0.08c1.16,0,2.119-0.04,2.36-0.12c-0.72,0.8-2.241,3.119-3.159,4.52c-0.96,1.56-4.8,7.759-5.76,9.758
	c-0.28,0.601-0.44,1.08-0.44,1.8c0,4.279,0.16,8.159,0.28,9.599c-0.24-0.08-0.959-0.08-1.64-0.08c-0.56,0-1.879,0.04-2.239,0.12
	C206.579,37.561,206.739,34.44,206.739,29.081"/>
<path fill="#FFFFFF" d="M230.7,8.285c0.96,0.239,2.439,0.359,5.879,0.359h12.998c2.319,0,5.239-0.12,5.959-0.319
	c-0.2,0.88-0.36,2.279-0.4,3.479c-0.64-0.4-1.76-0.601-4.399-0.761c-1.44-0.08-3.32-0.159-6.359-0.159v16.276
	c0,5.079,0.16,10.119,0.32,11.559c-0.4-0.08-1.04-0.08-1.64-0.08c-0.92,0-1.759,0.041-2.44,0.12c0.2-1.36,0.32-6.399,0.32-11.599
	V10.885c-1.84,0-2.88,0-5.518,0.079c-2.64,0.12-4.32,0.28-5.36,0.641C230.261,10.964,230.62,9.125,230.7,8.285"/>
<path fill="#FFFFFF" d="M259.539,22.882c0-4.839-0.12-8.519-0.4-9.798c0.4,0.08,1.16,0.08,1.719,0.08c0.84,0,1.72-0.08,2.201-0.12
	c-0.081,1.24-0.241,4.56-0.241,9.519v0.6c0,0.12,0.04,0.16,0.12,0.16h14.678c0.08,0,0.12,0,0.12-0.16v-0.6
	c0-4.839-0.12-8.238-0.28-9.479c0.439,0.08,1,0.08,1.68,0.08c0.759,0,1.639-0.04,2.199-0.12c-0.159,1.2-0.319,5.039-0.319,9.838
	v5.999c0,4.279,0.16,8.399,0.319,9.839c-0.4-0.08-1.159-0.08-1.68-0.08c-0.76,0-1.959,0.08-2.199,0.12
	c0.16-1.36,0.28-5.479,0.28-9.879v-2.999c0-0.12-0.04-0.12-0.08-0.12h-14.718c-0.08,0-0.12,0.04-0.12,0.12v2.999
	c0,4.279,0.16,8.399,0.321,9.839c-0.361-0.04-0.96-0.08-1.56-0.08c-0.92,0-1.84,0.04-2.32,0.12c0.12-1.4,0.28-5.479,0.28-9.879
	V22.882z"/>
<path fill="#FFFFFF" d="M293.418,30.041c-0.08,0-0.16,0-0.16,0.08c-1.08,2.92-2.639,6.999-3.04,8.599
	c-0.399-0.08-0.719-0.08-1.519-0.08c-0.84,0-1.72,0.08-2.04,0.12c0.88-1.8,2.2-4.8,3.68-8.199l6.878-16.557
	c0.48-1.04,0.68-1.439,0.88-1.439c0.161,0,0.36,0.279,0.88,1.439c0.4,0.84,3.879,8.479,7.039,15.356
	c1.64,3.641,3.599,7.999,4.519,9.359c-0.68-0.04-1.36-0.08-1.76-0.08c-0.92,0-2.039,0.04-2.519,0.12
	c-0.56-1.56-2.4-5.959-3.52-8.639c-0.039-0.08-0.039-0.08-0.159-0.08H293.418z M301.737,27.882c0.119,0,0.119-0.04,0.119-0.12
	l-4.079-9.559l-3.679,9.559c-0.04,0.08-0.04,0.12,0.079,0.12H301.737z"/>
<path fill="#FFFFFF" d="M317.419,38.64c-0.359,0-1.64,0.08-1.839,0.12c0.239-2.88,0.36-18.157,0.36-24.196
	c0-1.84,0.08-1.999,0.32-1.999c0.16,0,0.439,0.279,1.159,0.959c3.439,3.399,15.118,16.558,18.317,19.157
	c-0.04-5.119-0.16-15.877-0.44-19.597c0.28,0.04,0.96,0.08,1.44,0.08c0.76,0,1.72-0.08,1.959-0.12
	c-0.199,2.04-0.399,10.758-0.439,17.237c0,2.199,0.04,5.519,0.04,6.959c0,1.8-0.08,1.999-0.28,1.999c-0.24,0-0.72-0.399-2.959-2.56
	c-3.04-2.839-13.117-14.277-16.478-17.837c0.04,7.239,0.12,17.197,0.439,19.877C318.499,38.64,317.94,38.64,317.419,38.64"/>
<path fill="#FFFFFF" d="M347.899,22.882c0-4.839-0.12-8.918-0.36-9.798c0.319,0.08,1.12,0.08,1.641,0.08
	c0.999,0,1.879-0.04,2.279-0.12c-0.08,1.28-0.24,5.039-0.24,9.838v5.999c0,4.279,0.08,8.839,0.32,9.839
	c-0.32-0.04-0.92-0.08-1.52-0.08c-0.761,0-1.96,0.04-2.4,0.12c0.16-1.159,0.28-5.479,0.28-9.879V22.882z M364.337,13.164
	c1.359,0,2.56-0.08,3.199-0.12c-0.6,0.439-1.96,1.319-4.679,3.999c-1.2,1.2-7.119,6.959-7.919,7.799
	c2.119,2.439,7.118,7.519,9.278,9.639c3.239,3.08,4.639,3.839,5.239,4.039c-0.28,0.24-1.36,0.32-2.16,0.32
	c-2.359,0-3.679-0.44-6.039-3c-3.279-3.159-6.639-7.118-9.598-10.398c-0.08-0.079-0.08-0.199,0-0.279
	c1.52-1.32,5.079-4.76,7.759-7.839c2.079-2.159,3.398-3.84,3.639-4.239C363.337,13.124,363.815,13.164,364.337,13.164"/>
<path fill="#FFFFFF" d="M372.22,34.2c1.039,1.32,3.239,2.76,5.959,2.76c3.239,0,4.879-1.96,4.879-4.359
	c0-2.04-0.72-3.359-3.72-5.279l-1.76-1.119c-3.719-2.4-4.679-4.64-4.679-7.039c0-3.6,2.839-6.599,7.759-6.599
	c1.359,0,2.64,0.159,3.439,0.319c0.959,0.16,1.561,0.24,1.839,0.28c-0.119,0.359-0.319,2.239-0.319,3.52
	c-0.64-0.8-2.359-1.96-5.159-1.96c-2.6,0-4.359,1.479-4.359,3.72c0,1.76,0.439,2.999,3.56,5.039l1.72,1.08
	c4.239,2.679,5.079,4.719,5.079,7.358c0,1.52-0.76,4.199-3.199,5.879c-1.6,1.04-3.72,1.399-5.479,1.399
	c-2.279,0-4.64-0.6-5.839-1.399C372.06,37.28,372.259,35.24,372.22,34.2"/>
<path fill="#FFFFFF" d="M415.615,35.2v2.52c-2.279,1-5.759,1.479-8.838,1.479c-4.72,0-8.959-1.439-11.719-4.438
	c-1.959-2.039-3.439-5.159-3.439-9.039c0-5.599,2.84-8.839,5.479-10.598c3.399-2.319,7.639-2.56,10.158-2.56
	c4.319,0,7.799,1.24,8.679,1.399c-0.16,0.56-0.44,2.319-0.44,3.64c-0.8-1-3.919-2.84-9.317-2.84c-2.76,0-5.479,0.72-7.479,2.439
	c-1.88,1.64-3.359,4.359-3.359,7.799c0,7.238,4.359,11.918,12.238,11.918c1.56,0,3.52-0.16,4.599-0.8c0.08-0.08,0.12-0.28,0.12-0.96
	v-4.119c0-1.92-0.2-4.279-0.399-4.999c0.479,0.04,1.24,0.04,1.839,0.04c1.08,0,1.68-0.04,2.08-0.12c-0.08,0.84-0.2,3.439-0.2,5.879
	V35.2z"/>
<path fill="#FFFFFF" d="M424.3,22.882c0-4.839-0.12-8.878-0.36-9.758c0.36,0.04,1.12,0.04,1.641,0.04c1.119,0,1.999-0.08,2.279-0.12
	c-0.081,1.24-0.24,5.039-0.24,9.838v5.999c0,4.279,0.08,8.839,0.32,9.839c-0.32-0.04-1.08-0.08-1.68-0.08
	c-0.8,0-1.88,0.08-2.24,0.12c0.16-1.2,0.28-5.479,0.28-9.879V22.882z"/>
<path fill="#FFFFFF" d="M434.739,13.164c1.08,0,2.28-0.08,2.64-0.16c0.16,0.72,0.64,2.319,1.8,5.239
	c1.84,4.679,3.958,9.798,6.119,15.037c1.96-4.359,4.759-10.678,6.519-15.197c1.2-2.959,1.479-4.319,1.64-4.999
	c0.4,0.08,1,0.08,1.32,0.08c1.079,0,1.919-0.04,2.52-0.12c-0.561,0.8-1.92,3.159-3.199,6.079c-0.921,2.119-1.84,3.839-3.399,7.398
	c-2.2,4.919-3.561,7.999-4.92,10.878c-0.8,1.641-0.96,1.8-1.119,1.8c-0.24,0-0.4-0.279-1-1.72
	c-2.56-6.118-5.119-12.117-7.719-18.236c-1.32-3.239-2.319-5.119-3.08-6.159C433.46,13.164,434.579,13.164,434.739,13.164"/>
<path fill="#FFFFFF" d="M462.539,22.882c0-4.839-0.12-8.878-0.36-9.758c0.36,0.04,1.12,0.04,1.641,0.04
	c1.119,0,1.999-0.08,2.279-0.12c-0.081,1.24-0.24,5.039-0.24,9.838v5.999c0,4.279,0.08,8.839,0.32,9.839
	c-0.32-0.04-1.08-0.08-1.68-0.08c-0.8,0-1.88,0.08-2.24,0.12c0.16-1.2,0.28-5.479,0.28-9.879V22.882z"/>
<path fill="#FFFFFF" d="M477.418,38.64c-0.359,0-1.64,0.08-1.839,0.12c0.239-2.88,0.36-18.157,0.36-24.196
	c0-1.84,0.079-1.999,0.319-1.999c0.16,0,0.439,0.279,1.159,0.959c3.439,3.399,15.118,16.558,18.317,19.157
	c-0.04-5.119-0.16-15.877-0.44-19.597c0.28,0.04,0.96,0.08,1.44,0.08c0.76,0,1.72-0.08,1.959-0.12
	c-0.199,2.04-0.399,10.758-0.439,17.237c0,2.199,0.04,5.519,0.04,6.959c0,1.8-0.08,1.999-0.28,1.999c-0.239,0-0.72-0.399-2.959-2.56
	c-3.04-2.839-13.118-14.277-16.478-17.837c0.04,7.239,0.12,17.197,0.439,19.877C478.498,38.64,477.939,38.64,477.418,38.64"/>
<path fill="#FFFFFF" d="M529.416,35.2v2.52c-2.279,1-5.759,1.479-8.838,1.479c-4.721,0-8.959-1.439-11.719-4.438
	c-1.959-2.039-3.439-5.159-3.439-9.039c0-5.599,2.84-8.839,5.479-10.598c3.4-2.319,7.64-2.56,10.159-2.56
	c4.319,0,7.798,1.24,8.679,1.399c-0.16,0.56-0.44,2.319-0.44,3.64c-0.8-1-3.919-2.84-9.318-2.84c-2.759,0-5.479,0.72-7.479,2.439
	c-1.88,1.64-3.359,4.359-3.359,7.799c0,7.238,4.359,11.918,12.238,11.918c1.559,0,3.519-0.16,4.599-0.8
	c0.08-0.08,0.12-0.28,0.12-0.96v-4.119c0-1.92-0.201-4.279-0.399-4.999c0.479,0.04,1.239,0.04,1.839,0.04
	c1.08,0,1.68-0.04,2.08-0.12c-0.08,0.84-0.2,3.439-0.2,5.879V35.2z"/>
<path fill="#FFFFFF" d="M539.779,37.2c0-0.84,0.639-2.12,2.16-2.12c1.119,0,2.039,0.84,2.039,2.04c0,1.239-0.88,2.239-2.079,2.239
	C540.418,39.359,539.779,38.2,539.779,37.2 M540.939,30.201c-0.12-4.159-0.76-19.117-1.12-21.437c0.92-0.04,2.72-0.2,4.159-0.6
	c-0.319,3.319-0.92,17.717-1.199,21.636L540.939,30.201z"/>
</svg>
