<?xml version="1.0" encoding="utf-8"?>
<!-- Generator: Adobe Illustrator 16.0.4, SVG Export Plug-In . SVG Version: 6.00 Build 0)  -->
<!DOCTYPE svg PUBLIC "-//W3C//DTD SVG 1.1//EN" "http://www.w3.org/Graphics/SVG/1.1/DTD/svg11.dtd">
<svg version="1.1" id="Layer_1" xmlns="http://www.w3.org/2000/svg" xmlns:xlink="http://www.w3.org/1999/xlink" x="0px" y="0px"
	 viewBox="0 0 256.038 522.389" enable-background="new 0 0 256.038 522.389"
	 xml:space="preserve">
<path fill="#71431B" d="M256.038,403.158c-0.254,0.208-0.506,0.412-0.758,0.612c-7.978,6.638-15.254,10.096-20.381,11.84
	c-5.14,1.766-8.009,2.217-7.942,2.583c0.027,0.195,2.976,0.443,8.54-0.623c5.095-0.954,12.416-3.473,20.541-8.741V403.158z"/>
<path fill="#71431B" d="M256.038,244.064c-4.622,5.714-9.632,9.325-13.774,11.154c-5.53,2.547-8.931,2.975-8.858,3.234
	c-0.002,0.04,3.456,0.088,9.389-2.061c3.871-1.32,8.636-4.169,13.244-8.693V244.064z"/>
<path fill="#FAB516" d="M256.038,389.901c-0.101,0.169-0.179,0.376-0.297,0.519c-0.211,0.263-0.472,0.487-0.742,0.69
	c-0.985,0.731-1.978,1.207-3.21,1.049c-0.155,0.658-0.553,1.003-1.127,1.294c-0.308,0.155-0.65,0.234-1,0.29
	c-0.103,0.011-0.979,0.177-0.998,0.128c0.671,1.534-0.884,4.657-2.429,5.183c0.814,0.236,1.79,0.255,2.703,0.388
	c0.446,0.068,0.913,0.166,1.325,0.388c0.271,0.138,0.384,0.425,0.562,0.643c0.824-0.411,1.438-0.91,2.454-0.877
	c0.583,0.026,1.069,0.349,1.58,0.602c0.218-0.185,0.288-0.473,0.43-0.709c0.132-0.219,0.323-0.396,0.546-0.542
	c0.066-0.045,0.133-0.085,0.203-0.123V389.901z"/>
<path fill="#FAB516" d="M256.038,375.721c-0.07-0.049-0.137-0.103-0.207-0.162c-0.627-0.55-0.757-1.373-0.93-2.138
	c-0.1-0.425-0.272-0.876-0.127-1.299c-0.092,0.271-0.375,0.492-0.562,0.704c-0.929,1.084-2.643,1.094-4.019,0.68
	c0.178,1.122,0.723,2.502,0.349,3.59c-0.547,1.573-2.702,1.312-3.894,0.699c-0.769-0.412-1.355-0.994-1.899-1.654
	c-0.737,0.705-3.012,1.655-4.061,1.344l0.002-0.004c1.078,0.33,2.404,2.391,2.523,3.369c0.785-0.252,1.585-0.404,2.4-0.189
	c1.265,0.307,3.002,1.52,2.302,3.038c-0.479,1.049-1.746,1.739-2.553,2.491c1.141,0.498,2.22,1.64,2.082,3.095
	c-0.028,0.272-0.003,0.63-0.126,0.886c0.197-0.408,0.602-0.605,0.949-0.843c0.622-0.429,1.288-0.927,2.068-0.886
	c1.043,0.039,1.679,0.826,2.634,1.119c0.881-0.891,2.049-0.115,3.067,0.094V375.721z"/>
<path fill="#E0AF38" d="M256.038,394.643c-1.244,0.554-2.519,1.035-3.721,1.59c-0.8,0.369-1.593,0.744-2.322,1.192
	c-0.745,0.446-1.465,0.939-2.24,1.314c0.766-0.4,1.47-0.909,2.197-1.376c0.731-0.48,1.509-0.872,2.297-1.264
	c1.236-0.617,2.531-1.154,3.789-1.766V394.643z"/>
<path fill="#E0AF38" d="M256.038,384.378c-1.092-0.054-2.194,0.001-3.236,0.233c-1.036,0.25-2.057,0.654-2.864,1.361
	c-0.828,0.678-1.441,1.598-1.975,2.526c0.51-0.944,1.099-1.88,1.918-2.599c0.799-0.744,1.831-1.186,2.883-1.467
	c0.827-0.222,1.687-0.302,2.541-0.33c0.243-0.008,0.488-0.008,0.733-0.002V384.378z"/>
<path fill="#E0AF38" d="M256.038,383.418c-0.597-0.27-1.699-0.768-1.699-0.768l-2.028-0.877l-1.912-0.821l-1.772-0.72l-1.622-0.635
	l-1.456-0.559c-0.413-0.175-0.842-0.292-1.269-0.432l-1.6-0.515l-0.325-0.103l-0.097-0.031l0.194,0.057l0.487,0.149l0.84,0.253
	l1.106,0.336c0.443,0.124,0.866,0.305,1.299,0.459l1.54,0.561l1.714,0.633l1.807,0.736l1.938,0.795l2.044,0.851
	c0,0,0.378,0.161,0.811,0.347V383.418z"/>
<path fill="#E0AF38" d="M256.038,382.094c-0.536-0.619-1.001-1.29-1.414-1.992c-0.543-0.945-0.969-1.99-1.019-3.102
	c-0.099-1.101,0.135-2.183,0.436-3.223c-0.27,1.045-0.467,2.137-0.345,3.219c0.087,1.088,0.527,2.098,1.089,3.01
	c0.358,0.607,0.784,1.177,1.253,1.711V382.094z"/>
<path fill="#FAB516" d="M256.038,276.047c-0.592-0.632-1.137-1.308-1.521-2.088c-0.547-1.139-0.232-2.4-0.147-3.648
	c-0.416,0.064-1.07-0.363-1.376-0.59c-0.557-0.426-0.996-1.008-1.215-1.676c-0.194-0.584-0.277-1.525,0.281-2.066
	c-0.354,0.34-1.118,0.309-1.513,0.227c-1.654-0.35-3.233-1.042-4.114-2.472c-0.167-0.273-0.881-1.462-0.457-1.757
	c-0.731,0.515-1.784,0.404-2.537,0.119c-0.733-0.279-1.531-0.674-1.977-1.34c-0.484-0.73-0.467-1.584-0.213-2.394
	c-0.536,0.03-1.268-0.191-1.649-0.562c-1.18-1.167-1.235-4.201,0.157-5.115c-0.397,0.26-1.205-0.871-1.393-1.127
	c-0.973-1.372-1.097-3.028-0.979-4.571c0.027-0.362,0.178-1.021,0.522-1.175c-0.554,0.251-1.347-0.222-1.797-0.636
	c-0.513-0.47-0.894-1.085-1.131-1.727c-0.127-0.346-0.357-1.065-0.233-1.376c-1.031-0.474-2.123-0.798-2.926-1.757
	c-0.755-0.903-1.297-1.954-1.816-2.984l-0.98-1.889c-0.356,0.823-0.282,1.882-0.564,2.778c-0.321,1.02-0.916,1.519-1.636,2.168
	c0.778,1.857,1.953,3.051,0.827,5.002c1.011,0.938,2.057,1.456,2.739,2.72c0.731,1.37,1.284,2.948,1.812,4.413
	c-1.304-0.255-2.518-0.857-3.645-1.614c-0.579-0.397-1.231-0.843-1.694-1.365c-0.526-0.592-1.136-1.878-1.249-2.645
	c0.074,0.522-1.661,0.649-1.964,0.678c-0.729,0.037-1.531-0.069-2.194-0.417c-0.315-0.163-0.604-0.369-0.824-0.64
	c-0.237-0.3-0.398-0.674-0.72-0.896c-0.617,0.429-1.177,0.925-1.972,1.067c-1.369,0.235-2.313-0.372-3.565-0.705
	c-0.232,0.357-0.36,0.803-0.746,1.075c-0.579,0.435-1.287,0.708-1.961,0.944c-1.409,0.531-2.869,0.74-4.294,1.592
	c2.695-0.026,5.435,3.963,4.651,6.357c0.038-0.108,1.431-0.194,1.573-0.185c0.525-0.028,1.057-0.02,1.547,0.116
	c0.898,0.228,1.544,0.6,1.873,1.464c1.793-0.547,3.264-0.131,4.781,0.644c0.412,0.211,0.816,0.466,1.156,0.783
	c0.282,0.256,0.461,0.733,0.79,0.901c-1.448,0.447-3.039,2.021-4.558,0.959c-1.326,0.656-2.095,1.853-3.618,2.346
	c-1.164,0.359-2.256-0.087-3.319-0.393c-0.587-0.178-1.271-0.276-1.674-0.746c0.257,0.301,0.298,0.812,0.402,1.185
	c0.554,1.894-0.765,4.024-2.312,5.469c1.516,0.519,3.604,0.773,4.627,1.982c1.484,1.753-0.37,4.155-1.92,5.225
	c-1.03,0.663-2.114,1.03-3.3,1.298c0.365,1.35,0.15,4.777-0.85,5.877l-0.01-0.006c1.062-1.15,4.4-1.531,5.668-1.02
	c0.17-1.113,0.481-2.189,1.276-3.01c1.188-1.336,3.835-2.528,5.131-0.636c0.903,1.308,0.894,3.267,1.269,4.716
	c1.288-0.963,3.311-1.36,4.892-0.117c0.299,0.233,0.717,0.472,0.927,0.801c-0.333-0.521-0.303-1.127-0.344-1.693
	c-0.088-1.018-0.202-2.131,0.382-2.982c0.761-1.145,2.11-1.244,3.115-2.071c-0.398-1.79,1.586-2.438,2.542-3.494
	c0.005,0.366,0.348,0.75,0.456,1.116c0.129,0.439,0.186,0.904,0.21,1.369c0.094,1.666-0.115,3.117-1.133,4.353
	c0.622,0.679,0.732,1.392,0.661,2.238c-0.031,0.462-0.176,0.899-0.347,1.317c-0.066,0.114-0.438,1.209-0.504,1.194
	c2.132,0.456,4.551,4.612,4.213,6.656c0.732-0.673,1.373-1.699,2.102-2.554c0.354-0.412,0.759-0.83,1.276-1.094
	c0.337-0.168,0.719-0.047,1.078-0.057c0.11-1.198-0.042-2.264,0.726-3.311c0.435-0.594,1.13-0.842,1.759-1.16
	c-0.044-0.391-0.301-0.703-0.457-1.051c-0.14-0.321-0.19-0.672-0.19-1.026c0.008-0.752,0.27-1.493,0.651-2.125
	c0.137-0.249,1.184-1.761,1.631-1.47c-0.655-0.45-1.508-1.588-1.778-2.332c-0.242-0.661-0.302-1.457-0.371-2.162
	c-0.114-1.366-0.038-2.739,0.388-4.059c1.087,1.119,2.275,2.301,3.187,3.568c0.839,1.169,0.769,2.381,1.102,3.729
	c2.495-0.267,3.042,1.289,4.424,2.782c1.133-0.511,2.068-0.987,3.444-1.077c0.484-0.033,0.961,0.008,1.438,0.049V276.047z"/>
<path fill="#E0AF38" d="M247.893,253.093c0.133-0.178,1.552-2.95,1.908-1.571c0.477,1.822-1.812,2.68-2.929,3.481l-1.787,1.281
	l-1.907,1.268l-2.099,1.348l-2.342,1.455l-2.389,1.44c1.808,0.568,3.631,1.205,5.305,2.199c1.946,1.073,3.483,2.8,4.561,4.663
	c1.135,1.841,2.099,3.786,3.616,5.311c1.56,1.471,3.356,2.76,5.483,3.529c-2.161-0.702-4.023-1.924-5.653-3.361
	c-1.604-1.5-2.647-3.445-3.827-5.226c-1.137-1.827-2.611-3.373-4.509-4.36c-1.566-0.863-3.271-1.408-5.004-1.91
	c2.14,4.086,2.009,8.941,1.345,13.273c-0.316,2.368-0.904,4.688-1.191,6.971c-0.148,1.147-0.286,2.297-0.263,3.441
	c0.006,1.148,0.082,2.309,0,3.425c0.047-1.129-0.062-2.282-0.094-3.435c-0.057-1.159,0.045-2.317,0.162-3.475
	c0.221-2.311,0.719-4.632,0.974-6.994c0.557-4.545,0.458-9.51-1.992-13.408l-1.762,1.039l-2.729,1.602l-1.911,1.121
	c-2.035,1.904-4.087,4.338-5.065,7.04c-0.469,1.381-0.738,2.843-0.479,4.29c0.212,1.453,0.859,2.82,1.58,4.117
	c-0.751-1.276-1.439-2.633-1.7-4.103c-0.305-1.474-0.074-2.971,0.364-4.393c0.35-1.128,0.914-2.152,1.526-3.159
	c0.63-1.008,1.393-1.926,2.184-2.838l-1.913,1.171l-2.668,1.669l-2.539,1.703l-2.358,1.648c-0.732,0.494-1.428,1.043-2.106,1.598
	l-1.879,1.518l-1.646,1.391c-0.489,0.384-0.901,0.849-1.351,1.277l-1.002,1l-0.63,0.645l-0.318,0.343l-0.098,0.101l0.182-0.203
	l0.479-0.523l0.845-0.871l1.111-1.141c0.436-0.471,0.945-0.854,1.415-1.282l1.715-1.481l1.951-1.617l2.175-1.617l2.359-1.68
	l2.54-1.721l2.602-1.669l0.812-0.517l-0.172,0.039c-1.105,0.302-2.228,0.529-3.374,0.672c-1.131,0.154-2.299,0.174-3.447,0.14
	c-1.521-0.053-3.09-0.325-4.444-1.045c-1.379-0.667-2.501-1.708-3.517-2.798c1.052,1.054,2.205,2.06,3.582,2.68
	c1.357,0.674,2.895,0.896,4.393,0.906c2.948,0.1,5.961-0.671,8.57-1.582l0.242-0.148l2.711-1.66l2.654-1.627l0.835-0.509
	c-2.342-3.92-6.521-6.377-10.834-7.96c-2.265-0.841-4.591-1.535-7.008-2.161c-1.201-0.339-2.405-0.671-3.573-1.126
	c-1.17-0.443-2.33-0.927-3.586-1.224c1.271,0.265,2.458,0.709,3.634,1.121c1.175,0.421,2.396,0.716,3.601,1.018
	c2.417,0.562,4.782,1.189,7.076,1.973c4.21,1.406,8.4,3.662,11.068,7.436c0.36-1.758,0.608-3.528,0.509-5.281
	c-0.072-2.116-0.917-4.087-2.065-5.896c-1.112-1.829-2.391-3.618-3.166-5.648c-0.712-2.014-1.246-4.095-1.412-6.11
	c0.218,2.015,0.827,4.083,1.589,6.053c0.831,1.966,2.135,3.692,3.326,5.495c1.215,1.771,2.189,3.865,2.354,6.069
	c0.174,1.861-0.044,3.707-0.351,5.535l0.505-0.31l2.431-1.526l2.311-1.528l1.956-1.306l1.713-1.185l1.864-1.472
	C247.227,253.673,247.634,253.405,247.893,253.093"/>
<g opacity="0.35">
	<path fill="#FAB516" d="M256.038,229.282c-0.173-0.249-0.335-0.505-0.488-0.767c-0.581-0.967-1.644-3.018-1.363-4.13
		c-3.573-0.492-7.203-0.372-10.245-2.568c-2.863-2.092-5.108-4.861-7.243-7.648l-3.973-5.088c-0.888,3.174-0.183,6.559-0.752,9.846
		c-0.669,3.773-2.227,6.027-4.234,9.05c3.655,4.928,7.954,7.352,5.837,14.729c3.82,1.68,7.415,2.084,10.425,5.182
		c3.266,3.366,6.135,7.516,8.91,11.339c-4.114,0.625-8.32,0.221-12.324-0.736c-2.081-0.503-4.419-1.068-6.267-2.075
		c-2.102-1.149-5.021-4.286-5.98-6.479c0.646,1.459-4.583,4.12-5.509,4.627c-2.239,1.112-4.731,1.844-7.082,1.695
		c-1.107-0.058-2.186-0.274-3.09-0.809c-0.998-0.568-1.809-1.499-3-1.713c-1.532,2.223-2.866,4.596-5.122,6.171
		c-3.941,2.699-7.389,2.352-11.56,3.315c-0.359,1.464-0.298,2.996-1.171,4.413c-1.318,2.205-3.148,4.232-4.918,6.068
		c-3.649,3.844-7.781,7.049-10.982,12.104c7.954-4.83,20.419,2.638,21.009,10.851c-0.029-0.354,3.899-2.871,4.321-3.088
		c1.477-0.935,3.031-1.732,4.608-2.106c2.858-0.698,5.125-0.584,7.081,1.425c4.541-4.256,9.292-5.152,14.5-4.943
		c1.428,0.047,2.865,0.252,4.194,0.711c1.086,0.371,2.129,1.5,3.261,1.555c-3.69,3.145-6.371,9.82-11.929,8.957
		c-2.974,3.76-3.679,8.303-7.301,12.007c-2.779,2.766-6.366,3.351-9.743,4.166c-1.869,0.471-3.895,1.353-5.643,0.7
		c1.114,0.423,1.903,1.799,2.698,2.67c4.075,4.475,3.392,12.501,1.5,19.347c4.771-1.407,10.734-4.198,15.216-2.597
		c6.453,2.363,5.174,11.625,3.015,17.023c-1.494,3.504-3.681,6.334-6.134,9.256c3.262,2.865,8.764,11.545,8.744,15.922l-0.034,0.008
		c0.096-4.821,7.585-11.688,11.507-12.448c-1.531-2.903-2.545-6.044-1.955-9.373c0.767-5.251,5.835-12.283,12.033-9.228
		c3.695,1.772,6.395,5.604,9.183,8.533V229.282z"/>
	<path fill="#E0AF38" d="M256.038,339.834c-0.03-0.039-0.06-0.076-0.092-0.113c-2.896-3.379-4.45-7.615-5.157-11.961
		c-0.555-3.445-0.435-6.951-0.01-10.445c0.444-3.528,1.386-6.982,2.505-10.405l0.016-0.037l-3.866,5.573l-5.165,7.951l-4.575,8.035
		l-3.957,7.756c-1.18,2.391-2.24,4.838-3.153,7.354l-2.479,6.857l-1.901,6.25c-0.587,1.795-0.866,3.643-1.224,5.482l-0.683,4.23
		l-0.361,2.689l-0.153,1.4l-0.039,0.428l0.067-0.83l0.199-2.121l0.482-3.64l0.782-4.761c0.326-1.9,0.935-3.736,1.406-5.609
		l2.049-6.549l2.597-7.226l3.415-7.481l3.992-7.81l4.643-8.037l5.085-7.877l1.639-2.401l-0.44,0.333
		c-2.703,2.149-5.52,4.201-8.479,6.073c-2.95,1.867-6.093,3.553-9.293,5.042c-4.245,1.953-8.849,3.579-13.533,3.662
		c-4.674,0.28-9.15-0.787-13.429-2.171c4.337,1.236,8.83,2.148,13.452,1.758c4.62-0.243,9.083-1.934,13.207-3.973
		c8.189-3.89,15.546-9.781,21.778-15.334l0.51-0.703c0,0,0.06-0.078,0.166-0.221v2.631c-3.21,7.375-5.501,16.069-4.507,24.045
		c0.559,4.176,1.889,8.252,4.507,11.605V339.834z"/>
	<path fill="#E0AF38" d="M256.038,276.302c-8.003-2.874-16.964-3.724-25.879-3.116c-7.51,0.446-15.135,1.631-22.946,3.389
		c-3.906,0.759-7.842,1.66-11.798,2.195c-3.95,0.516-7.892,0.989-11.957,2.176c4.063-1.313,8.033-1.932,11.988-2.568
		c3.947-0.655,7.878-1.666,11.767-2.53c7.785-1.958,15.41-3.371,23.001-4.024c8.718-0.842,17.637-0.297,25.824,2.283V276.302z"/>
	<path fill="#E0AF38" d="M256.038,249.806c-0.097-0.091-0.194-0.18-0.293-0.269c-4.676-4.402-9.844-8.528-13.547-14.003
		c-3.513-5.484-6.364-11.501-7.747-17.91c1.585,6.343,4.632,12.233,8.282,17.535c3.657,5.015,8.599,8.809,13.305,12.901V249.806z"/>
	<rect x="175.906" y="209.08" fill="none" width="80.132" height="168.592"/>
</g>
<path fill="#F2D467" d="M256.038,219.361c-0.535,0.406-1.149,0.687-1.92,0.77c0.024,0.698-0.303,1.149-0.826,1.577
	c-0.285,0.238-0.634,0.404-0.99,0.547c-0.1,0.034-1.022,0.405-1.057,0.359c1.166,1.398,0.411,4.916-1.212,5.789
	c1.018,0.07,2.109-0.156,3.15-0.248c0.513-0.048,1.068-0.054,1.566,0.048c0.327,0.069,0.534,0.325,0.789,0.496
	c0.178-0.147,0.338-0.296,0.499-0.441V219.361z"/>
<path fill="#F2D467" d="M256.038,202.842c-0.692-0.045-1.378,0.022-2.061-0.357c-0.703-0.396-1-1.178-1.295-1.907
	c-0.165-0.408-0.401-0.811-0.342-1.27c-0.039,0.29-0.256,0.585-0.389,0.838c-0.665,1.316-2.238,1.695-3.57,1.554
	c0.307,1.087,1.039,2.373,0.871,3.549c-0.236,1.702-2.434,1.875-3.695,1.405c-0.825-0.283-1.458-0.831-2.046-1.439
	c-0.655,0.839-2.893,1.971-4.013,1.694l-0.002-0.009c1.109,0.293,2.642,2.333,2.916,3.315c0.81-0.329,1.618-0.576,2.495-0.484
	c1.358,0.162,3.364,1.042,2.969,2.723c-0.285,1.159-1.488,2.092-2.225,2.99c1.359,0.329,2.795,1.283,3.012,2.778
	c0.04,0.29,0.156,0.646,0.085,0.929c0.114-0.452,0.515-0.736,0.828-1.046c0.567-0.55,1.146-1.217,1.984-1.358
	c1.113-0.19,1.989,0.435,3.06,0.482c0.334-0.553,0.85-0.72,1.417-0.755V202.842z"/>
<path fill="#E0AF38" d="M256.038,223.931c-0.06,0.047-0.122,0.095-0.179,0.141c-0.729,0.584-1.46,1.165-2.127,1.795
	c-0.676,0.635-1.318,1.308-2.067,1.874c0.73-0.591,1.351-1.277,2.003-1.929c0.658-0.654,1.374-1.25,2.08-1.859
	c0.096-0.081,0.193-0.161,0.29-0.24V223.931z"/>
<path fill="#E0AF38" d="M256.038,211.311c-1.005,0.233-1.996,0.555-2.907,1.001c-0.992,0.496-1.94,1.15-2.612,2.041
	c-0.705,0.861-1.142,1.916-1.49,2.978c0.32-1.07,0.722-2.137,1.406-3.037c0.664-0.923,1.611-1.619,2.611-2.153
	c0.79-0.41,1.628-0.732,2.482-0.979c0.168-0.049,0.339-0.094,0.51-0.137V211.311z"/>
<path fill="#E0AF38" d="M256.038,210.279c-0.674-0.114-1.854-0.313-1.854-0.313l-2.237-0.386l-2.1-0.403l-1.922-0.379l-1.754-0.357
	l-1.559-0.354l-1.347-0.292l-1.029-0.221l-0.655-0.148l-0.34-0.085l-0.095-0.029l0.197,0.05l0.512,0.118l0.889,0.173l1.157,0.222
	l1.385,0.294l1.639,0.335l1.843,0.319l1.975,0.361l2.112,0.347l2.252,0.342c0,0,0.438,0.063,0.931,0.135V210.279z"/>
<path fill="#F2D467" d="M256.038,292.768c-0.164,0.047-0.329,0.088-0.492,0.125c-0.694,0.153-1.197-0.019-1.871-0.055
	c-0.417,0.907-1.228,0.893-2.184,1.186c-0.023,0.412-0.039,0.744-0.353,1.135c-0.271,0.342-0.687,0.629-0.933,0.938l1.039-0.21
	c0.565-0.118,1.141-0.235,1.715-0.248c0.614-0.013,1.049,0.249,1.55,0.468c0.082-0.127,0.436-0.252,0.606-0.309
	c0.298-0.09,0.614-0.134,0.922-0.109V292.768z"/>
<path fill="#F2D467" d="M256.038,287.13c-0.667-0.149-1.215-0.392-1.622-0.914c-0.402,0.214-0.751,0.19-1.145,0.079
	c-0.214-0.059-0.404-0.169-0.572-0.283c-0.051-0.039-0.534-0.326-0.513-0.355c-0.473,0.947-2.748,1.642-3.675,1.295
	c0.238,0.408,0.632,0.768,0.931,1.16c0.149,0.192,0.297,0.41,0.345,0.644c0.026,0.153-0.087,0.304-0.138,0.458
	c0.534,0.135,1.064,0.188,1.423,0.572c0.202,0.231,0.204,0.531,0.25,0.807c0.182,0.021,0.374-0.053,0.555-0.08
	c0.174-0.025,0.342-0.018,0.507,0.02c0.343,0.07,0.625,0.242,0.849,0.457c0.087,0.08,0.601,0.65,0.373,0.785
	c0.332-0.199,1.003-0.408,1.389-0.426c0.342-0.018,0.712,0.047,1.043,0.112L256.038,287.13"/>
<path fill="#F2D467" d="M256.038,280.734c-0.562,0.029-1.167-0.07-1.676-0.059c0.328,0.739,0.303,1.762-0.469,2.381
	c-0.148,0.121-0.309,0.299-0.49,0.362c0.288-0.106,0.575-0.024,0.85,0.015c0.505,0.072,1.052,0.129,1.392,0.5
	c0.246,0.254,0.331,0.551,0.394,0.858V280.734z"/>
<path fill="#E0AF38" d="M256.038,293.838c-0.654,0.078-1.3,0.18-1.929,0.369c-1.001,0.326-1.987,0.729-2.843,1.226
	c0.832-0.517,1.811-0.944,2.81-1.3c0.637-0.219,1.3-0.34,1.962-0.439V293.838z"/>
<path fill="#E0AF38" d="M256.038,289.516c-0.153-0.059-0.306-0.117-0.455-0.176c-1.053-0.404-2.04-0.873-3.076-1.219
	c-0.508-0.168-1.028-0.326-1.577-0.432c-0.539-0.103-1.095-0.17-1.604-0.304c0.519,0.116,1.076,0.172,1.622,0.263
	c0.557,0.092,1.088,0.235,1.609,0.392c1.055,0.319,2.064,0.756,3.116,1.131c0.12,0.043,0.241,0.086,0.365,0.129V289.516z"/>
<path fill="#E0AF38" d="M256.038,282.604c-0.515,0.04-1.026,0.165-1.528,0.313c0.493-0.158,1.008-0.301,1.528-0.354V282.604z"/>
<path fill="#DD9027" d="M173.42,433.712c1.735-0.892,5.947-0.057,7.347,0.953c0.639-1.303,1.412-2.51,2.655-3.29
	c1.912-1.253,5.526-2.014,6.619,0.69c0.756,1.87,0.146,4.31,0.138,6.233c1.987-0.865,4.685-0.844,6.313,1.106
	c0.312,0.37,0.783,0.771,0.954,1.238c-0.278-0.736-0.06-1.486,0.046-2.201c0.185-1.284,0.327-2.708,1.283-3.613
	c1.25-1.218,2.917-0.989,4.339-1.719c-0.017-2.316,2.519-2.555,3.925-3.531c-0.084,0.451,0.219,1.025,0.251,1.5
	c0.039,0.582-0.013,1.174-0.098,1.741c-0.313,2.068-0.863,3.762-2.402,4.99c0.583,1.018,0.544,1.919,0.26,2.941
	c-0.146,0.559-0.427,1.056-0.729,1.521c-0.097,0.124-0.847,1.377-0.925,1.339c2.516,1.146,4.431,6.931,3.495,9.372
	c1.101-0.648,2.076-1.726,3.104-2.542c0.499-0.398,1.073-0.787,1.685-0.924c0.401-0.095,0.807,0.174,1.199,0.28
	c0.329-1.384,0.427-2.745,1.405-3.69c0.566-0.552,1.337-0.579,2.035-0.699c0.03-0.476-0.173-0.953-0.26-1.423
	c-0.081-0.438-0.062-0.875,0.011-1.289c0.146-0.879,0.559-1.63,1.078-2.22c0.187-0.233,1.56-1.539,1.903-0.98
	c-0.513-0.826-1.085-2.537-1.167-3.528c-0.075-0.877,0.064-1.827,0.193-2.675c0.263-1.655,0.754-3.222,1.635-4.53
	c0.707,1.841,1.46,3.821,1.914,5.745c0.413,1.78,0.039,3.092,0.017,4.804c2.184,1.049,2.192,3.133,2.95,5.581
	c0.918,0.094,1.643,0.164,2.472,0.97c0.718,0.712,1.27,1.866,1.836,2.504l-0.418-2.683c-0.237-1.458-0.495-2.938-0.533-4.413
	c-0.044-1.566,0.515-2.692,0.963-3.922c-0.252-0.24-0.507-1.154-0.625-1.596c-0.207-0.847-0.298-1.761-0.19-2.624
	c0.098-0.766,0.41-1.795,1.031-1.957c-0.389,0.105-0.894-0.492-1.153-0.851c-1.062-1.521-2.125-3.317-2.249-5.436
	c-0.021-0.4-0.093-2.168,0.461-2.197c-0.945,0.056-1.909-0.691-2.531-1.472c-0.605-0.74-1.256-1.647-1.39-2.655
	c-0.146-1.09,0.328-2.071,1.092-2.825c-0.614-0.293-1.325-0.934-1.554-1.578c-0.739-1.972,1.131-5.56,3.679-5.631
	c-0.7,0.026-0.854-1.724-0.884-2.129c-0.171-2.118,1.047-4.068,2.796-5.624c0.396-0.379,1.342-0.956,2.028-0.845
	c-1.103-0.183-1.785-1.22-2.023-1.965c-0.275-0.859-0.205-1.781,0.16-2.626c0.2-0.459,0.669-1.391,1.296-1.606
	c-1.178-1.276-2.642-2.321-2.902-3.901c-0.225-1.482,0.122-2.979,0.544-4.451l0.78-2.707c-1.985,0.652-3.271,1.896-4.948,2.764
	c-1.914,0.997-3.477,1.297-5.436,1.755c-0.432,2.617,0.271,4.554-3.06,6.479c0.86,1.555,2.072,2.647,2.138,4.478
	c0.072,1.984-0.236,4.123-0.412,6.126c-1.646-0.884-3.013-2.099-4.161-3.451c-0.59-0.707-1.271-1.493-1.637-2.306
	c-0.415-0.927-0.526-2.74-0.194-3.735c-0.241,0.659-2.907,0.26-3.402,0.204c-1.127-0.17-2.218-0.543-3.024-1.177
	c-0.382-0.3-0.704-0.634-0.875-1.046c-0.195-0.443-0.227-0.966-0.591-1.333c-1.157,0.381-2.288,0.877-3.474,0.855
	c-2.099-0.052-3.137-1.041-4.818-1.76c-0.477,0.414-0.821,0.934-1.457,1.193c-0.986,0.408-2.029,0.605-3.033,0.751
	c-2.054,0.319-4.058,0.259-6.08,0.958c3.438,0.644,5.783,6.31,4.109,9.105c0.056-0.111,1.867,0.118,2.053,0.164
	c0.675,0.094,1.357,0.233,1.955,0.526c1.085,0.515,1.799,1.141,1.966,2.308c2.487-0.233,4.309,0.656,6.011,2.04
	c0.472,0.379,0.901,0.808,1.242,1.293c0.276,0.399,0.342,1.043,0.718,1.345c-2.039,0.15-4.572,1.712-6.186-0.01
	c-1.881,0.472-3.186,1.79-5.207,1.989c-1.531,0.137-2.778-0.682-3.99-1.37c-0.668-0.382-1.474-0.69-1.844-1.388
	c0.238,0.447,0.16,1.083,0.195,1.574c0.199,2.504-1.908,4.723-4.08,5.993c1.643,1.107,4.084,2.046,5.019,3.827
	c1.349,2.579-1.576,5.028-3.769,5.81c-1.438,0.491-2.868,0.514-4.349,0.401c0.031,1.778-1.525,5.783-3.229,6.688L173.42,433.712z"/>
<path fill="#E0AF38" d="M223.053,430.247c-0.386-2.703-1.14-5.292-2.73-7.43c-1.281-1.796-2.954-3.292-4.793-4.627
	c0.729,5.8-1.017,11.441-2.753,16.382c-0.934,2.709-2.073,5.304-2.901,7.976c-0.421,1.352-0.808,2.694-1.05,4.104
	c-0.249,1.398-0.421,2.84-0.768,4.189c0.31-1.371,0.44-2.817,0.654-4.231c0.216-1.436,0.569-2.802,0.951-4.17
	c0.763-2.73,1.816-5.365,2.677-8.094c1.673-5.246,3.253-11.142,2.012-16.852l-2.54,0.542l-3.892,0.991l-2.72,0.765
	c-3.109,1.72-6.29,4.19-8.197,7.28c-0.953,1.591-1.657,3.34-1.726,5.212c-0.127,1.854,0.304,3.729,0.84,5.531
	c-0.58-1.786-1.066-3.654-0.995-5.546c0.016-1.908,0.685-3.723,1.608-5.358c0.735-1.3,1.688-2.442,2.729-3.514
	c1.048-1.077,2.24-2.014,3.494-2.905l-2.71,0.915l-3.763,1.348l-3.604,1.453l-3.359,1.417c-1.031,0.425-2.041,0.895-3.037,1.389
	l-2.748,1.319l-2.447,1.191c-0.719,0.321-1.39,0.719-2.078,1.084l-1.574,0.86l-1.001,0.537l-0.523,0.274l-0.157,0.086l0.308-0.169
	l0.778-0.436l1.339-0.75l1.748-0.995c0.69-0.405,1.428-0.729,2.135-1.101l2.555-1.284l2.855-1.438l3.125-1.417l3.364-1.466
	l3.608-1.466l3.704-1.362l1.154-0.406l-0.231,0.004c-1.453,0.051-2.919,0.033-4.388-0.1c-1.454-0.121-2.917-0.378-4.335-0.731
	c-1.882-0.473-3.748-1.204-5.238-2.465c-1.52-1.203-2.627-2.793-3.588-4.424c1.019,1.596,2.162,3.151,3.702,4.299
	c1.5,1.198,3.347,1.86,5.206,2.273c3.646,0.884,7.631,0.722,11.143,0.397l0.347-0.107l3.894-1.15l3.856-0.991l1.218-0.273
	c-1.086-5.687-5.331-10.36-10.604-13.593c-2.72-1.716-5.671-3.198-8.704-4.587c-1.504-0.729-2.992-1.436-4.412-2.284
	c-1.412-0.838-2.76-1.735-4.315-2.412c1.587,0.637,2.976,1.498,4.415,2.289c1.439,0.812,2.967,1.473,4.488,2.161
	c3.088,1.302,6.088,2.716,8.912,4.382c5.207,2.993,9.614,7.415,11.084,13.096c1.222-1.95,2.442-3.918,3.361-6.035
	c1.164-2.53,1.481-5.235,1.229-7.959c-0.178-2.706-0.644-5.465-0.021-8.26c0.746-2.733,1.97-5.484,4.298-7.857
	c-2.209,2.408-3.315,5.176-3.95,7.883c-0.512,2.741,0.046,5.435,0.308,8.165c0.354,2.715,0.091,5.647-1.047,8.293
	c-0.906,2.268-2.143,4.339-3.335,6.37l0.742-0.146c1.209-0.218,2.415-0.43,3.625-0.593c1.165-0.167,2.334-0.328,3.505-0.426
	c0.999-0.098,1.997-0.131,2.997-0.177c0.876-0.015,1.762-0.042,2.64-0.018c0.866,0.021,1.798-0.143,2.651-0.031
	c0.927,0.116,1.776,0.432,2.729,0.449c0.718,0.013,1.456,0.082,2.114,0.341c-0.033,0.085-0.933,1.395-0.417,1.448
	c-0.508-0.056-0.795-0.244-1.229-0.515c-0.338-0.212-0.71-0.346-1.1-0.429c-0.845-0.213-1.773-0.198-2.645-0.247
	c-0.9-0.071-1.808-0.074-2.714-0.094c-0.948-0.002-1.896-0.018-2.853,0.037c-1.034,0.016-2.073,0.109-3.114,0.185
	c-1.141,0.105-2.293,0.229-3.435,0.387c-1.164,0.166-2.329,0.342-3.486,0.562c1.896,1.479,3.664,3.128,4.986,5.161
	c1.58,2.272,2.273,5.121,2.566,7.825c0.34,2.72,0.57,5.45,1.332,8.044c0.777,2.588,1.766,5.096,2.796,7.351
	c-1.07-2.202-2.109-4.695-2.975-7.268C223.784,435.693,223.474,432.925,223.053,430.247"/>
<path fill="#DD9027" d="M256.038,421.961c-1.303-0.206-2.486-0.782-2.85-1.622c0.205,0.484-1.387,1.25-1.751,1.427
	c-1.933,0.922-3.904,0.924-5.617,0.973c-0.395-0.01-1.07-0.07-1.124-0.352c0.094,0.468-0.705,1.272-1.323,1.729
	c-0.703,0.525-1.521,0.941-2.297,1.257c-0.418,0.15-1.261,0.504-1.525,0.503c-0.933,0.897-1.77,1.837-3.135,2.616
	c-1.288,0.758-2.617,1.416-3.89,2.102l-2.325,1.294c0.533-0.184,1.611-0.641,2.357-0.671c0.859-0.038,1.111,0.252,1.433,0.743
	c2.44-0.654,4.306-1.639,6.001-0.498c1.547-0.76,2.61-1.63,4.373-2.093c1.909-0.499,3.994-0.757,5.939-0.927
	c-0.853,1.288-2.113,2.388-3.521,3.306c-0.733,0.472-1.549,0.978-2.381,1.294c-0.939,0.352-2.724,0.588-3.663,0.537
	c0.642,0.018-0.073,1.741-0.188,2.021c-0.325,0.738-0.856,1.449-1.597,1.968c-0.348,0.258-0.733,0.479-1.161,0.594
	c-0.466,0.132-0.982,0.162-1.404,0.401c0.168,0.72,0.455,1.464,0.191,2.298c-0.459,1.424-1.658,2.161-2.716,3.291
	c0.293,0.4,0.721,0.712,0.827,1.221c0.181,0.787,0.115,1.688,0.025,2.514c-0.167,1.774-0.72,3.482-0.509,5.576
	c1.432-3.067,7.49-4.073,9.823-1.92c-0.101-0.1,0.549-1.732,0.632-1.887c0.256-0.603,0.549-1.212,0.969-1.684
	c0.753-0.868,1.528-1.396,2.7-1.332c0.34-2.275,1.599-3.675,3.295-4.966c0.47-0.354,0.977-0.677,1.52-0.905
	c0.446-0.188,1.089-0.159,1.456-0.449c-0.25,1.819,0.728,4.398-1.319,5.578c0.034,1.812,1.01,3.343,0.739,5.354
	c-0.211,1.541-1.304,2.57-2.23,3.648c-0.52,0.599-0.991,1.35-1.752,1.562c0.483-0.135,1.094,0.097,1.58,0.185
	c1.93,0.323,3.394,2,4.416,4V421.961z"/>
<path fill="#FAB516" d="M256.038,454.787c-0.926,0.464-1.899,0.83-2.873,1.15c0.979-0.359,1.953-0.761,2.873-1.259V454.787z"/>
<path fill="#FAB516" d="M256.038,431.226c-2.868,1.688-5.459,3.896-7.803,6.139c-2.132,2.065-4.147,4.171-6.166,6.48
	c-1.037,1.098-2.07,2.281-3.218,3.306c-1.141,1.083-2.334,2.057-3.357,3.317c0.989-1.291,2.16-2.308,3.261-3.418
	c1.119-1.055,2.113-2.263,3.112-3.378c1.94-2.339,3.901-4.504,5.977-6.619c2.396-2.421,5.102-4.85,8.194-6.731V431.226z"/>
<path fill="#FAB516" d="M256.038,425.407c-0.14-0.028-0.282-0.054-0.426-0.077c-2.555-0.516-5.218,0.075-7.781,0.976
	c-2.559,0.884-5.165,1.901-7.778,2.55c-2.579,0.66-5.096,1.239-7.195,1.924c2.136-0.718,4.666-1.358,7.212-2.065
	c2.569-0.731,5.093-1.78,7.655-2.771c2.533-1,5.366-1.738,8.075-1.329c0.08,0.012,0.16,0.021,0.238,0.032V425.407z"/>
<path fill="#FAB516" d="M256.038,412.141c-0.074-0.098-0.147-0.194-0.223-0.291c-0.306-0.407-0.669-0.91-1.063-1.23
	c-0.485-0.382-1.053-0.65-1.621-0.905c-0.188-0.086-0.535-0.264-0.648-0.432c0.317-0.06,0.656-0.515,0.88-0.735l0.578-0.615
	c0.132-0.186,0.222-0.385,0.242-0.625c0.402,0.401,0.535,0.763,0.728,1.268c0.155,0.39,0.374,0.749,0.597,1.111
	c0.162,0.252,0.344,0.497,0.531,0.743V412.141z"/>
<path fill="#FAB516" d="M256.038,291.273c-0.306,0.121-0.627,0.221-0.971,0.33c-0.039,2.01,0.522,3.565-1.315,4.887
	c0.543,1.26,1.289,2.151,1.395,3.573c0.109,1.55-0.034,3.204-0.147,4.75c-1.085-0.753-1.961-1.795-2.691-2.935
	c-0.368-0.592-0.785-1.256-1-1.922c-0.246-0.746-0.276-2.168-0.066-2.906c-0.147,0.503-1.807-0.068-2.094-0.165
	c-0.708-0.254-1.405-0.666-1.873-1.252c-0.231-0.271-0.421-0.567-0.508-0.905c-0.102-0.369-0.092-0.773-0.304-1.105
	c-0.752,0.15-1.495,0.387-2.294,0.207c-1.385-0.315-2.017-1.243-3.067-2.029c-0.377,0.244-0.677,0.595-1.146,0.7
	c-0.727,0.171-1.506,0.153-2.24,0.12c-1.574-0.035-3.02-0.418-4.74-0.145c2.59,0.979,3.559,5.686,1.866,7.602
	c0.076-0.082,1.434,0.355,1.562,0.422c0.502,0.175,1.005,0.382,1.412,0.688c0.742,0.556,1.203,1.14,1.164,2.066
	c1.905,0.174,3.1,1.134,4.195,2.433c0.307,0.35,0.575,0.739,0.767,1.165c0.16,0.341,0.133,0.845,0.371,1.136
	c-1.526-0.153-3.609,0.668-4.614-0.886c-1.489,0.097-2.671,0.906-4.291,0.792c-1.223-0.111-2.079-0.924-2.955-1.602
	c-0.483-0.383-1.091-0.719-1.293-1.305c0.132,0.371-0.032,0.856-0.075,1.242c-0.212,1.948-2.259,3.45-4.257,4.231
	c1.236,1.024,3.089,2.022,3.599,3.513c0.721,2.165-1.891,3.71-3.718,4.157c-1.203,0.239-2.343,0.211-3.552,0.043
	c-0.147,1.376-1.539,4.511-2.844,5.192l-0.008-0.01c1.391-0.712,4.631,0.088,5.62,1.021c0.542-0.972,1.214-1.868,2.243-2.341
	c1.57-0.814,4.455-0.941,4.952,1.283c0.358,1.543-0.356,3.344-0.531,4.813c1.521-0.409,3.498-0.021,4.475,1.719
	c0.191,0.331,0.486,0.706,0.558,1.089c-0.12-0.604,0.124-1.148,0.295-1.684c0.293-0.969,0.593-2.037,1.438-2.59
	c1.107-0.764,2.361-0.342,3.584-0.705c0.314-1.797,2.36-1.616,3.628-2.206c-0.129,0.335,0.031,0.823-0.014,1.196
	c-0.046,0.453-0.177,0.904-0.33,1.336c-0.556,1.559-1.283,2.799-2.661,3.533c0.308,0.869,0.137,1.563-0.234,2.307
	c-0.2,0.41-0.491,0.759-0.792,1.068c-0.101,0.082-0.832,0.939-0.886,0.9c1.741,1.241,2.378,5.979,1.371,7.714
	c0.875-0.333,1.798-1.019,2.746-1.508c0.477-0.239,0.969-0.467,1.526-0.501c0.356-0.018,0.653,0.242,0.971,0.374
	c0.541-1.046,0.811-2.081,1.868-2.726c0.611-0.369,1.32-0.319,2.011-0.354c0.103-0.374-0.012-0.765-0.014-1.142
	c-0.004-0.348,0.083-0.688,0.215-1.004c0.295-0.684,0.814-1.256,1.4-1.678c0.227-0.174,1.736-1.125,2.021-0.679
	c-0.403-0.671-0.732-2.048-0.683-2.836c0.048-0.695,0.302-1.448,0.524-2.112c0.128-0.379,0.27-0.753,0.431-1.115V291.273z"/>
<path fill="#E0AF38" d="M256.038,316.885c-0.453-0.414-0.922-0.812-1.395-1.211c0.303,4.574-1.758,8.933-4.015,12.615
	c-1.202,2.031-2.599,3.908-3.706,5.887c-0.569,0.984-1.104,1.979-1.503,3.035c-0.413,1.051-0.766,2.14-1.236,3.127
	c0.44-1.008,0.767-2.109,1.154-3.176c0.379-1.074,0.885-2.095,1.423-3.107c1.064-2.018,2.38-3.94,3.526-5.99
	c2.243-3.92,4.14-8.471,3.471-13.002l-2.021,0.238l-3.116,0.38l-2.188,0.272c-2.613,0.939-5.435,2.373-7.347,4.487
	c-0.951,1.091-1.744,2.321-2.036,3.758c-0.346,1.419-0.256,2.919-0.069,4.38c-0.218-1.455-0.351-2.959-0.05-4.408
	c0.257-1.481,1.034-2.763,1.972-3.896c0.747-0.91,1.649-1.632,2.604-2.32c0.962-0.686,2.019-1.232,3.086-1.75l0.009-0.006
	l-2.211,0.333l-3.092,0.5l-2.982,0.609l-2.794,0.64c-0.863,0.178-1.701,0.441-2.539,0.703l-2.288,0.721l-2.033,0.697
	c-0.591,0.178-1.136,0.471-1.708,0.712l-1.289,0.577l-0.809,0.382l-0.42,0.207l-0.124,0.067l0.251-0.133l0.622-0.322l1.093-0.51
	l1.438-0.68c0.567-0.281,1.182-0.46,1.775-0.682l2.123-0.762l2.397-0.78l2.614-0.683l2.808-0.664l2.998-0.607l3.032-0.531
	l0.943-0.156l-0.176-0.029c-1.126-0.157-2.25-0.381-3.354-0.688c-1.101-0.295-2.192-0.728-3.235-1.187
	c-1.387-0.622-2.737-1.475-3.724-2.639c-1.033-1.121-1.684-2.504-2.221-3.884c0.584,1.366,1.276,2.718,2.322,3.806
	c1.013,1.117,2.349,1.91,3.733,2.482c2.687,1.206,5.754,1.662,8.499,1.854l0.281-0.034l3.129-0.448l3.07-0.424l0.964-0.127
	c-0.548-4.502-3.378-8.422-6.731-11.572c-1.767-1.65-3.633-3.208-5.657-4.71c-0.996-0.769-1.991-1.539-2.908-2.401
	c-0.938-0.847-1.829-1.734-2.9-2.485c1.093,0.725,2.028,1.587,2.987,2.407c0.938,0.84,1.969,1.576,2.974,2.315
	c2.054,1.449,3.982,2.951,5.804,4.568c3.323,2.95,6.243,6.684,7.148,11.187c0.587-0.818,1.143-1.652,1.626-2.521v1.447
	c-0.319,0.539-0.658,1.07-1.001,1.59l0.584-0.076c0,0,0.166-0.022,0.417-0.061v0.58c-0.554,0.07-1.024,0.129-1.024,0.129
	c0.344,0.305,0.686,0.613,1.024,0.93V316.885z"/>
<g opacity="0.82">
	<path fill="#A02022" d="M181.365,336.986c0.764-0.617,2.883-0.481,3.599-0.041c0.222-0.664,0.533-1.289,1.111-1.717
		c0.881-0.686,2.646-1.107,3.206,0.229c0.394,0.918,0.167,2.104,0.245,3.039c0.873-0.428,2.117-0.387,2.885,0.595
		c0.147,0.188,0.361,0.392,0.452,0.623c-0.139-0.365-0.057-0.72-0.021-1.068c0.064-0.625,0.121-1.309,0.557-1.731
		c0.582-0.559,1.351-0.396,2.021-0.691c0.031-1.134,1.229-1.148,1.914-1.547c-0.054,0.217,0.068,0.512,0.065,0.748
		c0,0.287-0.044,0.572-0.099,0.842c-0.208,1-0.486,1.797-1.184,2.323c0.246,0.524,0.219,0.957,0.093,1.444
		c-0.062,0.265-0.186,0.496-0.316,0.703c-0.043,0.055-0.357,0.635-0.391,0.611c1.095,0.657,1.906,3.564,1.606,4.67
		c0.417-0.246,0.786-0.706,1.189-1.037c0.2-0.158,0.425-0.316,0.67-0.341c0.163-0.019,0.321,0.14,0.479,0.213
		c0.138-0.642,0.192-1.295,0.609-1.687c0.245-0.228,0.562-0.187,0.854-0.192c0.022-0.229-0.048-0.474-0.069-0.712
		c-0.018-0.217,0.002-0.426,0.045-0.625c0.092-0.414,0.296-0.75,0.541-1c0.086-0.096,0.741-0.639,0.857-0.331
		c-0.173-0.442-0.334-1.321-0.318-1.81c0.014-0.433,0.133-0.889,0.242-1.295c0.214-0.783,0.545-1.51,1.04-2.082
		c0.194,0.955,0.396,1.983,0.466,2.957c0.061,0.901-0.193,1.513-0.308,2.344c0.868,0.695,0.731,1.697,0.885,2.96
		c0.375,0.123,0.66,0.222,0.952,0.684c0.242,0.412,0.386,1.013,0.574,1.375l0.04-1.338c0.018-0.731,0.026-1.476,0.14-2.192
		c0.115-0.77,0.464-1.273,0.79-1.824c-0.102-0.139-0.139-0.607-0.149-0.838c-0.025-0.428,0.015-0.883,0.14-1.291
		c0.108-0.357,0.354-0.834,0.667-0.858c-0.193,0.019-0.385-0.313-0.473-0.515c-0.368-0.834-0.719-1.803-0.592-2.844
		c0.024-0.201,0.142-1.06,0.412-1.027c-0.456-0.065-0.854-0.498-1.084-0.936c-0.227-0.425-0.461-0.91-0.443-1.414
		c0.026-0.549,0.335-0.984,0.773-1.283c-0.271-0.193-0.562-0.576-0.622-0.903c-0.192-1.021,1.045-2.61,2.304-2.412
		c-0.348-0.05-0.265-0.914-0.242-1.112c0.104-1.054,0.885-1.879,1.88-2.486c0.223-0.152,0.737-0.336,1.055-0.227
		c-0.51-0.179-0.754-0.758-0.801-1.139c-0.054-0.441,0.06-0.883,0.319-1.264c0.136-0.207,0.452-0.605,0.773-0.658
		c-0.453-0.729-1.08-1.37-1.062-2.158c0.022-0.742,0.326-1.439,0.672-2.117l0.623-1.25c-1.022,0.153-1.778,0.623-2.69,0.901
		c-1.055,0.308-1.868,0.317-2.919,0.376c-0.452,1.244-0.265,2.23-2.154,2.9c0.319,0.834,0.833,1.459,0.71,2.355
		c-0.135,0.98-0.472,1.993-0.732,2.957c-0.754-0.557-1.36-1.26-1.84-2.001c-0.246-0.386-0.536-0.82-0.662-1.244
		c-0.142-0.483-0.05-1.379,0.209-1.842c-0.181,0.301-1.561-0.072-1.816-0.126c-0.587-0.159-1.14-0.402-1.523-0.762
		c-0.181-0.168-0.331-0.351-0.392-0.562c-0.069-0.231-0.044-0.491-0.215-0.692c-0.654,0.131-1.311,0.317-1.961,0.256
		c-1.143-0.115-1.656-0.635-2.533-1.045c-0.299,0.189-0.531,0.441-0.899,0.555c-0.577,0.179-1.182,0.264-1.759,0.322
		c-1.177,0.14-2.319,0.101-3.526,0.482c1.956,0.291,2.928,3.169,1.884,4.569c0.036-0.065,1.023,0.059,1.124,0.081
		c0.365,0.054,0.731,0.126,1.044,0.279c0.565,0.273,0.917,0.6,0.948,1.184c1.353-0.07,2.271,0.431,3.09,1.179
		c0.221,0.203,0.426,0.431,0.571,0.687c0.123,0.205,0.123,0.527,0.299,0.692c-1.068-0.006-2.457,0.687-3.228-0.194
		c-1.015,0.19-1.748,0.84-2.826,0.934c-0.815,0.07-1.463-0.338-2.101-0.661c-0.353-0.18-0.786-0.321-0.974-0.662
		c0.12,0.22,0.062,0.54,0.071,0.786c0.058,1.264-1.098,2.415-2.259,3.167c0.899,0.474,2.177,0.872,2.666,1.743
		c0.689,1.256-0.762,2.529-1.839,3.02c-0.714,0.309-1.432,0.403-2.196,0.45c0.084,0.89-0.421,2.964-1.141,3.558L181.365,336.986z"/>
	<path fill="#E0AF38" d="M204.677,336.113c0.039-1.35-0.104-2.672-0.689-3.84c-0.472-0.987-1.157-1.848-1.956-2.635
		c-0.08,2.883-1.289,5.514-2.262,7.813c-0.533,1.258-1.105,2.458-1.495,3.707c-0.198,0.626-0.37,1.257-0.466,1.926
		c-0.105,0.658-0.161,1.349-0.277,1.974c0.099-0.636,0.143-1.334,0.229-2.002c0.087-0.68,0.245-1.326,0.425-1.965
		c0.364-1.281,0.895-2.504,1.396-3.777c0.958-2.457,2.112-5.222,1.927-8.105l-1.278,0.094c-0.663,0.059-1.317,0.143-1.976,0.242
		l-1.379,0.232c-1.622,0.69-3.281,1.805-4.254,3.291c-0.487,0.758-0.826,1.613-0.855,2.525c-0.054,0.908,0.171,1.834,0.446,2.719
		c-0.295-0.881-0.544-1.797-0.517-2.728c0-0.933,0.326-1.819,0.801-2.604c0.37-0.629,0.865-1.162,1.407-1.66
		c0.55-0.496,1.169-0.918,1.821-1.295l0.005-0.006l-1.375,0.344c-0.642,0.179-1.274,0.363-1.904,0.561
		c-0.611,0.213-1.216,0.43-1.813,0.665c-0.562,0.218-1.122,0.452-1.675,0.694c-0.518,0.215-1.014,0.46-1.504,0.722l-1.334,0.718
		l-1.174,0.682c-0.345,0.184-0.654,0.42-0.978,0.638l-0.722,0.517l-0.462,0.332l-0.234,0.176l-0.071,0.054l0.138-0.108l0.352-0.269
		l0.612-0.456l0.812-0.587c0.321-0.237,0.677-0.423,1.017-0.638l1.231-0.717l1.397-0.769c0.514-0.243,1.026-0.489,1.553-0.716
		l1.688-0.704c0.608-0.226,1.217-0.444,1.83-0.65c0.625-0.196,1.252-0.383,1.885-0.553l0.591-0.154l-0.118-0.006
		c-0.722-0.039-1.452-0.096-2.18-0.2c-0.727-0.102-1.456-0.265-2.169-0.451c-0.943-0.266-1.892-0.627-2.643-1.25
		c-0.771-0.586-1.337-1.373-1.822-2.172c0.518,0.784,1.102,1.543,1.88,2.105c0.768,0.596,1.7,0.924,2.637,1.156
		c1.832,0.485,3.818,0.535,5.573,0.553l0.177-0.037c0.66-0.133,1.32-0.254,1.982-0.354c0.652-0.098,1.309-0.172,1.968-0.232
		l0.615-0.049c-0.114-2.855-1.873-5.463-4.423-7.331c-1.307-0.987-2.784-1.854-4.354-2.628c-0.772-0.409-1.553-0.791-2.295-1.238
		c-0.728-0.439-1.442-0.906-2.28-1.247c0.859,0.32,1.594,0.769,2.347,1.187c0.756,0.428,1.555,0.793,2.342,1.182
		c1.602,0.734,3.11,1.568,4.473,2.541c2.531,1.75,4.396,4.254,4.682,7.136c0.745-0.864,1.514-1.722,2.151-2.682
		c0.789-1.138,1.184-2.425,1.298-3.776c0.151-1.333,0.155-2.72,0.728-4.021c0.612-1.268,1.496-2.488,2.861-3.437
		c-1.312,0.978-2.133,2.212-2.689,3.482c-0.505,1.282-0.468,2.645-0.574,3.995c-0.064,1.35-0.451,2.768-1.241,3.953
		c-0.644,1.031-1.425,1.94-2.163,2.842l0.375-0.012c0.607-0.02,1.21-0.017,1.819-0.004c0.583,0.021,1.165,0.041,1.744,0.098
		c0.496,0.039,0.984,0.117,1.471,0.181c0.43,0.074,0.86,0.133,1.288,0.231c0.494,0.072,0.976,0.172,1.466,0.274
		c0.25,0.043,0.531,0.165,0.784,0.177c0.309,0.002,0.618-0.012,0.928-0.031c0.104-0.008,0.306-0.01,0.398,0.033
		c-0.127,0.1-0.173,0.377-0.222,0.524l-0.117,0.399c-0.018,0.111-0.013,0.216,0.021,0.32c-0.241-0.07-0.371-0.187-0.557-0.354
		c-0.148-0.131-0.319-0.232-0.5-0.307c-0.397-0.17-0.854-0.256-1.272-0.351c-0.43-0.121-0.872-0.201-1.309-0.296
		c-0.462-0.083-0.923-0.184-1.392-0.239c-0.505-0.077-1.013-0.132-1.526-0.182c-0.569-0.05-1.136-0.091-1.706-0.101
		c-0.582-0.026-1.161-0.017-1.742-0.002c0.812,0.865,1.533,1.812,2.004,2.914c0.567,1.229,0.651,2.691,0.572,4.03
		c-0.06,1.353-0.16,2.696-0.026,4.026c0.15,1.328,0.386,2.623,0.642,3.815c-0.273-1.171-0.541-2.454-0.722-3.79
		C204.598,338.829,204.66,337.454,204.677,336.113"/>
	<rect x="181.365" y="313.352" fill="none" width="31.258" height="32.666"/>
</g>
<g opacity="0.82">
	<path fill="#A02022" d="M256.038,500.332c-0.727,0.7-1.334,1.479-2.399,1.827c-1.113,0.341-2.259-0.186-3.315-0.631
		c-0.59-0.244-1.241-0.437-1.683-0.974c0.28,0.34,0.39,0.873,0.533,1.271c0.771,2.041-0.33,4.079-1.751,5.194
		c1.396,0.915,3.459,1.536,4.535,2.957c1.572,2.062-0.53,4.526-2.354,5.287c-1.174,0.488-2.381,0.53-3.607,0.394
		c0.129,1.558-1.303,5.063-2.927,5.729l-0.008-0.007c1.572-0.621,5.306,0.196,6.637,1.009c0.603-1.19,1.266-2.298,2.353-3.092
		c1.029-0.761,2.609-1.507,3.987-1.448V500.332z"/>
	<path fill="#A02022" d="M256.038,484.273c-0.078-0.056-0.154-0.116-0.225-0.182c-0.319-0.291-0.558-0.681-0.962-0.871
		c-0.61,0.586-1.157,1.25-1.961,1.499c-1.414,0.428-2.523-0.126-3.889-0.37c-0.152,0.399-0.182,0.866-0.497,1.169
		c-0.479,0.479-1.104,0.785-1.689,1.031c-1.221,0.523-2.509,0.659-3.526,1.323c2.339,0.284,5.941,4.359,5.663,6.807
		c0.005-0.09,1.322-0.127,1.467-0.126c0.502-0.018,1.026-0.001,1.545,0.127c0.93,0.238,1.657,0.601,2.165,1.505
		c0.646-0.246,1.277-0.358,1.909-0.368V484.273z"/>
	<path fill="#E0AF38" d="M256.038,513.974c-0.712,0.488-1.705,1.167-1.705,1.167c-0.734,0.498-1.478,0.981-2.234,1.442
		c-0.682,0.417-1.365,0.825-2.06,1.21c-0.609,0.319-1.18,0.688-1.781,1.022l-1.383,0.759l-0.892,0.458l-0.466,0.231l-0.146,0.068
		l0.28-0.142l0.697-0.361l1.181-0.65l1.516-0.905l1.812-1.07c0.712-0.427,1.417-0.875,2.105-1.34c0.776-0.512,1.536-1.047,2.284-1.6
		c0.265-0.179,0.529-0.359,0.791-0.545V513.974z"/>
	<path fill="#E0AF38" d="M256.038,506.937c-0.701-0.181-1.378-0.444-2.014-0.813c-1.477-0.789-2.684-2.01-3.787-3.263
		c1.133,1.228,2.368,2.4,3.845,3.141c0.622,0.338,1.282,0.575,1.956,0.732V506.937z"/>
	<path fill="#E0AF38" d="M256.038,490.854c-0.979-0.171-1.956-0.341-2.927-0.518c-1.301-0.271-2.589-0.554-3.833-1.002
		c-1.248-0.444-2.459-0.967-3.691-1.339c1.235,0.336,2.463,0.827,3.71,1.227c1.251,0.413,2.547,0.656,3.848,0.889
		c0.959,0.142,1.925,0.281,2.894,0.421V490.854z"/>
	<rect x="243.062" y="483.221" fill="none" width="12.977" height="39.168"/>
</g>
<path fill="#A02022" d="M231.88,246.386c-0.852,0.64-3.117,0.397-3.855-0.131c-0.271,0.694-0.64,1.353-1.285,1.763
	c-0.989,0.674-2.907,0.986-3.401-0.499c-0.338-1.011-0.014-2.274-0.031-3.273c-0.945,0.38-2.261,0.218-2.997-0.899
	c-0.14-0.213-0.357-0.453-0.43-0.71c0.122,0.406,0,0.782-0.07,1.147c-0.127,0.662-0.245,1.4-0.764,1.812
	c-0.682,0.559-1.521,0.315-2.296,0.603c-0.138,1.22-1.475,1.169-2.308,1.596c0.079-0.235-0.043-0.557-0.027-0.811
	c0.022-0.311,0.092-0.619,0.18-0.912c0.312-1.07,0.722-1.931,1.583-2.462c-0.232-0.577-0.161-1.051,0.036-1.565
	c0.101-0.285,0.271-0.521,0.435-0.746c0.058-0.059,0.472-0.654,0.505-0.631c-1.166-0.787-1.803-3.968-1.315-5.15
	c-0.511,0.243-1.002,0.726-1.554,1.074c-0.278,0.172-0.579,0.333-0.907,0.364c-0.22,0.02-0.413-0.151-0.614-0.233
	c-0.28,0.717-0.427,1.419-1.071,1.873c-0.371,0.258-0.826,0.235-1.271,0.273c-0.061,0.251,0.022,0.515,0.034,0.768
	c0.011,0.238-0.034,0.47-0.114,0.689c-0.173,0.465-0.49,0.855-0.866,1.15c-0.146,0.123-1.136,0.793-1.331,0.493
	c0.282,0.447,0.524,1.378,0.505,1.911c-0.016,0.474-0.17,0.983-0.305,1.438c-0.267,0.879-0.664,1.724-1.264,2.425
	c-0.383-0.981-0.812-2.03-1.049-3.053c-0.214-0.945,0.13-1.677,0.271-2.603c-1.582-0.495-1.529-1.602-1.995-2.894
	c-0.837,0.026-1.524,0.07-2.399-0.237c-0.774-0.265-1.407-0.791-2.249-0.96l0.548,1.353c0.303,0.732,0.584,1.486,0.628,2.278
	c0.048,0.848-0.486,1.55-0.875,2.313c0.281,0.066,0.577,0.503,0.707,0.722c0.241,0.41,0.357,0.885,0.321,1.36
	c-0.036,0.414-0.233,1.027-0.728,1.22c0.312-0.124,0.783,0.095,1.008,0.246c0.947,0.649,1.743,1.5,1.92,2.619
	c0.031,0.214,0.165,1.139-0.179,1.211c0.594-0.126,1.216,0.212,1.612,0.591c0.383,0.362,0.774,0.817,0.874,1.35
	c0.111,0.579-0.118,1.107-0.489,1.545c0.337,0.124,0.735,0.447,0.876,0.779c0.422,1.032-0.328,2.946-1.438,3.14
	c0.316-0.056,0.526,0.857,0.57,1.066c0.245,1.109-0.114,2.172-0.574,3.1c-0.107,0.223-0.375,0.586-0.623,0.592
	c0.404-0.006,0.776,0.496,0.942,0.87c0.193,0.427,0.275,0.908,0.255,1.37c-0.01,0.247-0.047,0.754-0.207,0.914
	c0.519,0.568,1.096,1.051,1.347,1.859c0.232,0.76,0.302,1.554,0.359,2.33l0.124,1.436c0.421-0.421,0.631-1.1,1.047-1.581
	c0.475-0.544,0.952-0.703,1.579-0.916c0.008-1.364-0.404-2.405,0.812-3.332c-0.386-0.848-0.901-1.44-0.995-2.407
	c-0.099-1.05-0.024-2.173,0.026-3.226c0.756,0.502,1.368,1.19,1.879,1.952c0.261,0.398,0.558,0.838,0.709,1.285
	c0.179,0.506,0.222,1.465,0.091,1.976c0.086-0.343,1.241,0.013,1.454,0.07c0.484,0.159,0.979,0.427,1.313,0.808
	c0.165,0.186,0.298,0.381,0.365,0.61c0.077,0.243,0.075,0.521,0.228,0.741c0.537-0.125,1.063-0.301,1.631-0.205
	c0.977,0.182,1.468,0.779,2.243,1.279c0.266-0.18,0.479-0.43,0.812-0.521c0.526-0.146,1.102-0.174,1.649-0.188
	c1.136-0.037,2.253,0.12,3.516-0.173c-1.963-0.501-2.788-3.655-1.629-5.058c-0.046,0.057-1.054-0.156-1.149-0.195
	c-0.373-0.09-0.738-0.206-1.044-0.391c-0.555-0.344-0.893-0.721-0.896-1.35c-1.362-0.039-2.241-0.64-3.034-1.488
	c-0.216-0.23-0.415-0.487-0.557-0.767c-0.121-0.229-0.115-0.571-0.286-0.759c1.055,0.064,2.498-0.582,3.25,0.43
	c1.044-0.125,1.859-0.747,3.002-0.751c0.866,0.004,1.52,0.488,2.177,0.892c0.361,0.232,0.813,0.418,0.981,0.797
	c-0.106-0.243-0.019-0.587-0.005-0.852c0.056-1.349,1.41-2.504,2.761-3.232c-0.946-0.57-2.305-1.094-2.753-2.068
	c-0.632-1.405,1.039-2.656,2.24-3.118c0.791-0.283,1.58-0.343,2.412-0.362c-0.025-0.954,0.611-3.173,1.408-3.78L231.88,246.386z"/>
<path fill="#E0AF38" d="M204.912,247.043c0.231,1.434,0.74,2.784,1.661,3.891c0.748,0.943,1.658,1.737,2.611,2.492
	c-0.277-3.099,1.062-6.085,2.451-8.619c0.753-1.397,1.588-2.698,2.216-4.055c0.314-0.678,0.6-1.364,0.802-2.083
	c0.211-0.714,0.355-1.461,0.58-2.134c-0.204,0.688-0.335,1.436-0.522,2.165c-0.191,0.733-0.456,1.432-0.755,2.126
	c-0.59,1.388-1.381,2.715-2.088,4.125c-1.378,2.696-2.598,5.812-2.073,8.874l1.371-0.191l2.105-0.319l1.479-0.236
	c1.75-0.698,3.621-1.776,4.796-3.289c0.59-0.776,1.038-1.657,1.146-2.64c0.138-0.97-0.018-1.974-0.238-2.952
	c0.241,0.971,0.426,1.978,0.317,2.969c-0.081,1.003-0.519,1.921-1.093,2.727c-0.456,0.641-1.038,1.179-1.652,1.676
	c-0.627,0.496-1.32,0.908-2.033,1.288l-0.008,0.004l1.492-0.296l2.08-0.461l1.995-0.557l1.858-0.601
	c0.574-0.188,1.128-0.403,1.674-0.647c0.505-0.212,1.001-0.436,1.493-0.666l1.314-0.646c0.377-0.187,0.728-0.411,1.088-0.628
	l0.806-0.514l0.51-0.341l0.261-0.174l0.081-0.055l-0.154,0.109l-0.389,0.274l-0.685,0.456l-0.906,0.583
	c-0.362,0.235-0.752,0.421-1.135,0.623L225.99,250c-0.518,0.244-1.039,0.487-1.565,0.707l-1.731,0.639l-1.869,0.606l-2.008,0.547
	l-2.051,0.47l-0.635,0.137l0.122,0.012c0.769,0.073,1.542,0.181,2.305,0.352c0.769,0.155,1.532,0.393,2.274,0.657
	c0.979,0.362,1.959,0.842,2.711,1.572c0.778,0.701,1.312,1.59,1.762,2.489c-0.482-0.884-1.042-1.751-1.832-2.427
	c-0.762-0.7-1.733-1.142-2.707-1.471c-1.912-0.681-4.012-0.884-5.879-0.944l-0.191,0.035l-2.114,0.369l-2.081,0.342l-0.649,0.104
	c0.443,3.046,2.417,5.665,4.803,7.72c1.252,1.088,2.607,2.085,4.088,3.028c0.72,0.493,1.472,0.967,2.164,1.509
	c0.7,0.532,1.366,1.1,2.188,1.546c-0.84-0.422-1.529-0.977-2.252-1.487c-0.707-0.526-1.477-0.976-2.205-1.449
	c-1.506-0.905-2.895-1.872-4.182-2.93c-2.362-1.918-4.398-4.417-5.077-7.458c-0.685,1.004-1.306,2.037-1.704,3.159
	c-0.51,1.336-0.507,2.779-0.269,4.208c0.215,1.425,0.537,2.873,0.493,4.341c-0.083,1.44-0.289,2.875-0.716,4.17
	c0.388-1.312,0.555-2.752,0.589-4.183c0-1.437-0.361-2.854-0.627-4.288c-0.294-1.42-0.35-2.979,0.132-4.387
	c0.378-1.206,1-2.305,1.666-3.358l-0.396,0.06l-1.912,0.322l-1.838,0.342l-1.558,0.298l-1.374,0.291l-1.544,0.437
	c-0.259,0.079-0.589,0.139-0.822,0.264c-0.292,0.162-0.552,0.369-0.807,0.577c-0.087,0.067-0.255,0.193-0.366,0.207
	c0.053-0.163-0.086-0.433-0.139-0.591l-0.153-0.426c-0.058-0.104-0.125-0.195-0.229-0.263c0.274-0.09,0.466-0.07,0.749-0.04
	c0.215,0.02,0.435,0.004,0.654-0.03c0.475-0.071,0.951-0.248,1.418-0.358l1.446-0.331l1.521-0.298l1.658-0.287l1.835-0.29
	l1.863-0.273c-0.979-0.827-1.942-1.703-2.725-2.754c-0.929-1.176-1.429-2.654-1.614-4.094c-0.223-1.442-0.315-2.902-0.857-4.252
	c-0.58-1.325-1.353-2.603-2.482-3.633c1.173,0.996,1.993,2.254,2.63,3.577C204.5,244.147,204.643,245.627,204.912,247.043"/>
<g opacity="0.82">
	<path fill="#A02022" d="M256.038,205.602c-0.04,0.074-0.08,0.146-0.122,0.216c-0.65,1.07-1.544,1.849-2.549,2.556
		c0.969,1.117,2.088,4.507,1.484,5.988h-0.009c0.195-0.468,0.639-0.954,1.195-1.406V205.602z"/>
	<path fill="#A02022" d="M256.038,188.318c-0.227,0.065-0.474,0.092-0.749,0.069c-0.849,1.283-0.89,2.767-2.001,3.959
		c-0.855,0.889-2.071,1.042-3.188,1.253c-0.623,0.113-1.284,0.339-1.896,0.106c0.388,0.151,0.694,0.581,0.989,0.86
		c1.511,1.431,1.425,3.907,0.749,5.834c1.627-0.163,3.663-0.853,5.215-0.241c0.36,0.142,0.653,0.343,0.881,0.585V188.318z"/>
	<path fill="#A02022" d="M256.038,173.207c-0.649-0.413-1.329-1.015-1.647-1.512c0.304,0.482-1.353,1.667-1.638,1.889
		c-0.712,0.495-1.521,0.852-2.334,0.92c-0.386,0.031-0.767,0.007-1.107-0.13c-0.376-0.146-0.711-0.422-1.136-0.439
		c-0.382,0.797-0.695,1.653-1.363,2.24c-1.174,1.029-2.365,0.998-3.708,1.421c-0.033,0.474,0.084,0.944-0.123,1.407
		c-0.31,0.724-0.802,1.358-1.285,1.944c-0.993,1.203-2.188,2.151-2.976,3.559c2.374-1.303,7.002,0.822,7.599,3.347
		c-0.029-0.098,1.175-0.881,1.307-0.95c0.453-0.293,0.938-0.556,1.453-0.694c0.933-0.255,1.71-0.257,2.48,0.346
		c1.275-1.381,2.771-1.844,4.479-1.973V173.207z"/>
	<path fill="#A02022" d="M256.038,158.422c-0.073-0.077-0.145-0.154-0.218-0.23l-1.564-1.664c-0.261,1.295,0.072,2.531-0.019,3.804
		c-0.123,1.454-0.584,2.395-1.165,3.623c1.515,1.542,3.119,2.161,2.754,4.908c0.072,0.019,0.142,0.036,0.212,0.053V158.422z"/>
	<path fill="#E0AF38" d="M256.038,195.654c-0.272,0.032-0.549,0.05-0.826,0.052c-1.604,0.069-3.164-0.334-4.65-0.83
		c1.504,0.451,3.069,0.805,4.65,0.694c0.277-0.01,0.555-0.038,0.826-0.079V195.654z"/>
	<path fill="#E0AF38" d="M256.038,179.594c-2.446,0.483-4.874,1.148-7.313,1.876c-1.282,0.354-2.56,0.705-3.861,0.927
		c-1.299,0.219-2.6,0.373-3.896,0.744c1.285-0.408,2.593-0.604,3.878-0.866c1.298-0.256,2.566-0.652,3.834-1.035
		c2.441-0.81,4.878-1.546,7.358-2.112V179.594z"/>
	<path fill="#E0AF38" d="M256.038,162.042c-0.378-0.753-0.698-1.545-0.948-2.375c0.256,0.767,0.579,1.496,0.948,2.192V162.042z"/>
	<rect x="238.722" y="156.527" fill="none" width="17.316" height="57.835"/>
</g>
<g opacity="0.73">
	<path fill="#F59122" d="M256.038,390.062c-0.587-0.073-1.224-0.322-1.971-0.851c-0.949,1.127-1.437,2.331-2.801,2.994
		c-1.487,0.717-3.207,1.205-4.785,1.71c0.188-1.477,0.743-2.884,1.458-4.146c0.376-0.658,0.791-1.396,1.313-1.922
		c0.595-0.592,1.951-1.246,2.802-1.326c-0.571,0.045-0.98-2.045-1.065-2.408c-0.166-0.895-0.171-1.807,0.103-2.594
		c0.127-0.373,0.302-0.715,0.572-0.965c0.294-0.281,0.687-0.457,0.874-0.847c-0.593-0.731-1.271-1.424-1.56-2.323
		c-0.505-1.57-0.008-2.67,0.116-4.126c-0.44-0.249-0.935-0.354-1.301-0.761c-0.569-0.622-0.993-1.376-1.364-2.098
		c-0.785-1.483-1.255-3.034-2.332-4.412c0.396,2.838-3.406,6.232-6.037,5.703c0.106,0.018,0.401,1.48,0.418,1.635
		c0.104,0.548,0.172,1.124,0.104,1.662c-0.118,0.982-0.416,1.707-1.281,2.162c0.843,1.859,0.636,3.511,0.014,5.211
		c-0.169,0.471-0.384,0.929-0.674,1.328c-0.233,0.326-0.718,0.564-0.853,0.936c-0.665-1.529-2.57-3.052-1.654-4.789
		c-0.875-1.324-2.254-1.986-2.955-3.51c-0.521-1.16-0.21-2.354,0.004-3.494c0.121-0.628,0.145-1.346,0.59-1.824
		c-0.285,0.305-0.809,0.416-1.181,0.578c-1.913,0.836-4.227-0.221-5.833-1.596c-0.412,1.596-0.489,3.771-1.635,4.99
		c-1.659,1.759-4.377,0.123-5.598-1.392c-0.78-0.995-1.204-2.112-1.529-3.309c-1.396,0.509-4.966,0.415-6.163-0.644l0.01-0.008
		c1.206,1.09,1.735,4.618,1.327,5.99c1.194,0.133,2.348,0.402,3.301,1.166c1.505,1.156,3.08,3.785,1.252,5.377
		c-1.267,1.102-3.344,1.283-4.853,1.807c1.211,1.314,1.921,3.439,0.832,5.25c-0.209,0.346-0.395,0.823-0.714,1.086
		c0.503-0.418,1.146-0.451,1.739-0.563c1.062-0.201,2.224-0.468,3.194,0.036c1.299,0.654,1.579,2.035,2.556,2.964
		c1.821-0.647,2.711,1.301,3.892,2.142c-0.379,0.057-0.743,0.456-1.107,0.612c-0.446,0.196-0.926,0.317-1.397,0.403
		c-1.715,0.314-3.215,0.334-4.617-0.553c-0.634,0.737-1.362,0.949-2.242,1c-0.483,0.03-0.957-0.059-1.411-0.173
		c-0.123-0.044-1.317-0.3-1.312-0.372c-0.201,2.301-4.218,5.382-6.407,5.285c0.817,0.706,1.948,1.197,2.892,1.807
		c0.469,0.301,0.936,0.657,1.231,1.114c0.196,0.303,0.109,0.7,0.136,1.051c1.208-0.097,2.304-0.387,3.366,0.16
		c0.619,0.323,0.874,0.942,1.206,1.496c0.387-0.104,0.698-0.403,1.045-0.599c0.319-0.189,0.666-0.29,1.019-0.346
		c0.74-0.115,1.489,0.021,2.108,0.286c0.253,0.094,1.744,0.871,1.42,1.319c0.474-0.664,1.629-1.622,2.381-1.97
		c0.665-0.311,1.464-0.464,2.178-0.605c1.365-0.26,2.784-0.316,4.083,0.003c-1.188,1.132-2.461,2.352-3.791,3.311
		c-1.236,0.881-2.423,0.944-3.764,1.415c0,2.2-1.604,2.84-3.231,4.226c0.33,0.891,0.593,1.601,0.383,2.69
		c-0.188,0.958-0.79,1.901-0.925,2.798l1.829-1.331c0.986-0.729,1.998-1.467,3.122-1.971c1.2-0.542,2.328-0.362,3.491-0.341
		c0.041-0.34,0.609-0.902,0.901-1.164c0.545-0.488,1.198-0.886,1.897-1.085c0.606-0.178,1.544-0.255,1.948,0.245
		c-0.259-0.311-0.052-0.982,0.111-1.335c0.689-1.474,1.63-2.958,3.197-3.774c0.3-0.161,1.602-0.819,1.839-0.388
		c-0.399-0.739-0.186-1.764,0.179-2.513c0.363-0.728,0.824-1.529,1.549-1.967c0.793-0.481,1.683-0.436,2.52-0.112
		c0.002-0.555,0.277-1.322,0.685-1.71c1.264-1.2,4.563-1.02,5.467,0.749c-0.253-0.489,1.008-1.224,1.304-1.39
		c1.54-0.885,3.371-0.708,5.104-0.143c0.412,0.119,1.138,0.539,1.291,1.017c-0.242-0.771,0.32-1.637,0.796-2.067
		c0.346-0.315,0.756-0.552,1.195-0.704V390.062z"/>
	<path fill="#E0AF38" d="M256.038,393.41c-0.073,0.016-0.145,0.033-0.215,0.05c-2.205,0.61-4.075,1.916-6.056,3.048
		c-1.937,1.173-4.243,2.018-6.607,2.034c-2.013,0.074-3.985-0.198-5.915-0.495l0.331,0.534l1.613,2.582
		c0.509,0.835,1.012,1.675,1.495,2.522l1.177,2.19l0.995,1.958c0.41,0.729,0.793,1.472,1.18,2.216
		c0.2,0.373,0.361,0.865,0.622,1.197c0.329,0.4,0.688,0.773,1.06,1.138c0.125,0.123,0.356,0.371,0.396,0.539
		c-0.265-0.051-0.664,0.204-0.903,0.309l-0.634,0.304c-0.152,0.101-0.284,0.225-0.371,0.391c-0.185-0.393-0.181-0.687-0.186-1.117
		c-0.003-0.335-0.061-0.666-0.171-0.983c-0.218-0.7-0.604-1.379-0.918-2.04l-0.988-2.059l-1.076-2.132
		c-0.397-0.771-0.807-1.536-1.226-2.297c-0.47-0.839-0.94-1.678-1.436-2.506l-1.522-2.507c-0.563,1.919-1.263,3.811-2.373,5.502
		c-1.21,1.972-3.141,3.474-5.12,4.567c-1.967,1.146-3.997,2.172-5.711,3.642c-1.675,1.496-3.214,3.157-4.429,4.933
		c1.157-1.797,2.645-3.504,4.294-5.063c1.7-1.549,3.734-2.658,5.642-3.854c1.946-1.164,3.669-2.617,4.764-4.546
		c0.964-1.586,1.567-3.352,2.039-5.186c-4.253,2.347-9.218,2.609-13.638,2.57c-2.435-0.006-4.813-0.221-7.174-0.168
		c-1.189,0.027-2.361,0.077-3.551,0.255c-1.18,0.177-2.363,0.427-3.532,0.508c1.171-0.119,2.347-0.398,3.532-0.606
		c1.197-0.212,2.378-0.296,3.575-0.356c2.38-0.119,4.776,0.011,7.193-0.05c4.642-0.094,9.74-0.573,13.77-3.277l-1.179-1.807
		l-1.9-2.74l-1.368-1.9c-2.227-1.941-5.029-3.766-7.985-4.426c-1.505-0.317-3.073-0.399-4.56,0.054
		c-1.495,0.399-2.853,1.246-4.122,2.157c1.247-0.942,2.581-1.83,4.091-2.281c1.503-0.505,3.108-0.469,4.65-0.186
		c1.221,0.223,2.378,0.662,3.502,1.181c1.136,0.53,2.197,1.203,3.231,1.929l0.01,0.006l-1.466-1.867l-2.086-2.58l-2.115-2.432
		l-2.024-2.255c-0.616-0.694-1.262-1.362-1.923-2.013l-1.779-1.799l-1.604-1.6c-0.449-0.474-0.945-0.887-1.427-1.324l-1.815-1.627
		l-0.361-0.33l-0.116-0.099l0.223,0.192l1.524,1.32l1.264,1.097c0.515,0.429,0.969,0.919,1.455,1.372l1.709,1.654l1.902,1.854
		l1.959,2.076l2.062,2.242l2.13,2.433l2.091,2.524l0.638,0.791l-0.072-0.181c-0.438-1.126-0.831-2.274-1.129-3.457
		c-0.302-1.174-0.494-2.393-0.601-3.6c-0.139-1.597-0.07-3.269,0.522-4.774c0.533-1.52,1.486-2.818,2.504-4.014
		c-0.981,1.229-1.89,2.551-2.376,4.07c-0.536,1.5-0.561,3.129-0.38,4.697c0.291,3.098,1.505,6.172,2.744,8.816l0.188,0.245
		l2.002,2.702l1.899,2.703l0.578,0.858c4.062-2.581,6.419-7.215,7.504-12.147c0.6-2.575,0.967-5.229,1.25-7.948
		c0.172-1.351,0.329-2.705,0.619-4.022c0.288-1.322,0.632-2.605,0.755-3.998c-0.084,1.402-0.389,2.707-0.632,4.039
		c-0.255,1.325-0.369,2.695-0.507,4.045c-0.199,2.732-0.502,5.405-1.031,8.032c-0.905,4.81-3.041,9.495-6.966,12.374
		c1.878,0.342,3.759,0.647,5.662,0.634c2.281,0.045,4.433-0.664,6.416-1.769c1.992-1.055,3.939-2.327,6.22-2.862
		c0.096-0.021,0.196-0.04,0.293-0.058V393.41z"/>
	<rect x="205.877" y="365.988" fill="none" width="50.161" height="53.254"/>
</g>
</svg>
