<?xml version="1.0" encoding="utf-8"?>
<!-- Generator: Adobe Illustrator 16.0.4, SVG Export Plug-In . SVG Version: 6.00 Build 0)  -->
<!DOCTYPE svg PUBLIC "-//W3C//DTD SVG 1.1//EN" "http://www.w3.org/Graphics/SVG/1.1/DTD/svg11.dtd">
<svg version="1.1" id="Layer_1" xmlns="http://www.w3.org/2000/svg" xmlns:xlink="http://www.w3.org/1999/xlink" x="0px" y="0px"
	 width="133.73px" height="134.23px" viewBox="0 0 133.73 134.23" enable-background="new 0 0 133.73 134.23" xml:space="preserve">
<g>
	
		<rect x="19.82" y="20.3" transform="matrix(0.7071 0.7071 -0.7071 0.7071 66.9375 -27.4456)" fill="#FFFFFF" width="93.556" height="93.555"/>
	<polygon fill="#CDCFD0" points="66.597,124.297 9.01,67.034 66.597,9.769 124.077,67.034 	"/>
	<g>
		
			<rect x="52.483" y="6.67" transform="matrix(0.7071 0.7071 -0.7071 0.7071 34.154 -40.9834)" fill="#7BB2E0" width="28.131" height="28.131"/>
		
			<rect x="56.23" y="14.3" transform="matrix(0.7071 0.7071 -0.7071 0.7071 36.8888 -39.8417)" fill="#9FD8D5" width="20.615" height="20.615"/>
		<path fill="#566CB3" d="M39.576,13.742c1.002,1.539,5.512,10.164,7.945,14.352l19.327,35.97l16.678-31.567
			c4.867-8.053,7.266-12.455,10.057-18.109c0.896-1.432-18.754,3.758-25.805,18.002c-0.787,1.539-1.109,1.432-1.754,0.215
			C57.756,15.388,39.002,12.74,39.576,13.742z"/>
	</g>
	<g>
		
			<rect x="99.569" y="53.039" transform="matrix(-0.7071 0.7071 -0.7071 -0.7071 241.4354 34.2007)" fill="#ED94AE" width="28.13" height="28.132"/>
		
			<rect x="99.601" y="56.727" transform="matrix(-0.7071 0.7071 -0.7071 -0.7071 235.0265 36.7182)" fill="#FABAA4" width="20.615" height="20.615"/>
		<path fill="#EF484D" d="M120.641,40.083c-1.539,1.002-10.165,5.512-14.353,7.945l-35.97,19.327l31.676,16.678
			c8.053,4.868,12.455,7.266,18.109,10.058c1.432,0.895-3.758-18.754-18.002-25.805c-1.539-0.788-1.432-1.109-0.215-1.754
			C119.102,58.3,121.643,39.439,120.641,40.083z"/>
	</g>
	<g>
		
			<rect x="52.481" y="99.428" transform="matrix(-0.7071 -0.7071 0.7071 -0.7071 33.3497 240.8012)" fill="#F8C54F" width="28.131" height="28.131"/>
		
			<rect x="56.293" y="99.361" transform="matrix(-0.7071 -0.7071 0.7071 -0.7071 36.1465 234.3083)" fill="#FBF28A" width="20.614" height="20.615"/>
		<path fill="#F5831F" d="M93.512,120.432c-1.003-1.539-5.512-10.164-7.946-14.352L66.239,70.112l-16.678,31.566
			c-4.868,8.053-7.266,12.455-10.058,18.11c-0.895,1.432,18.755-3.759,25.805-18.003c0.788-1.539,1.11-1.432,1.755-0.215
			C75.294,118.893,94.192,121.399,93.512,120.432z"/>
	</g>
	<g>
		
			<rect x="6.031" y="53.018" transform="matrix(0.7071 -0.7071 0.7071 0.7071 -41.5495 33.8586)" fill="#94CD8B" width="28.131" height="28.132"/>
		
			<rect x="13.567" y="56.795" transform="matrix(0.7071 -0.7071 0.7071 0.7071 -40.4563 36.5359)" fill="#D0D589" width="20.615" height="20.615"/>
		<path fill="#5D9B59" d="M13.09,94.055c1.539-1.002,10.164-5.512,14.352-7.945l35.97-19.327L31.737,50.14
			c-8.053-4.867-12.348-7.265-18.002-10.057c-1.432-0.895,3.758,18.754,18.002,25.805c1.539,0.787,1.432,1.109,0.215,1.754
			C14.737,75.838,12.088,94.592,13.09,94.055z"/>
	</g>
</g>
</svg>
