<?xml version="1.0" encoding="utf-8"?>
<!-- Generator: Adobe Illustrator 16.0.4, SVG Export Plug-In . SVG Version: 6.00 Build 0)  -->
<!DOCTYPE svg PUBLIC "-//W3C//DTD SVG 1.1//EN" "http://www.w3.org/Graphics/SVG/1.1/DTD/svg11.dtd">
<svg version="1.1" id="Layer_1" xmlns="http://www.w3.org/2000/svg" xmlns:xlink="http://www.w3.org/1999/xlink" x="0px" y="0px"
	 width="99.5px" height="85.286px" viewBox="0.563 1.135 99.5 85.286" enable-background="new 0.563 1.135 99.5 85.286"
	 xml:space="preserve">
<g>
	<path fill="#EF484D" d="M50.313,84.92c-0.93,0-1.715-0.32-2.355-0.961l-33.43-32.25c-0.359-0.285-0.848-0.75-1.473-1.395
		c-0.625-0.645-1.617-1.813-2.973-3.508c-1.359-1.696-2.574-3.438-3.645-5.223c-1.07-1.785-2.027-3.949-2.867-6.485
		c-0.84-2.535-1.258-5-1.258-7.391c0-7.859,2.266-14,6.805-18.43c4.535-4.429,10.801-6.645,18.801-6.645
		c2.215,0,4.477,0.387,6.777,1.152c2.305,0.77,4.45,1.805,6.43,3.109c1.98,1.301,3.688,2.527,5.117,3.668
		c1.425,1.145,2.785,2.355,4.07,3.645c1.285-1.289,2.641-2.5,4.07-3.645c1.429-1.141,3.137-2.367,5.117-3.668
		c1.98-1.305,4.125-2.34,6.43-3.109c2.301-0.766,4.562-1.152,6.777-1.152c7.996,0,14.266,2.215,18.801,6.645
		c4.535,4.43,6.805,10.571,6.805,18.43c0,7.891-4.09,15.926-12.27,24.106L52.669,83.959C52.028,84.6,51.243,84.92,50.313,84.92z"/>
</g>
</svg>
