<?xml version="1.0" encoding="utf-8"?>
<!-- Generator: Adobe Illustrator 16.0.4, SVG Export Plug-In . SVG Version: 6.00 Build 0)  -->
<!DOCTYPE svg PUBLIC "-//W3C//DTD SVG 1.1//EN" "http://www.w3.org/Graphics/SVG/1.1/DTD/svg11.dtd">
<svg version="1.1" id="turkey-body" xmlns="http://www.w3.org/2000/svg" xmlns:xlink="http://www.w3.org/1999/xlink" x="0px"
	 y="0px" viewBox="0 7.528 22.604 21.404" enable-background="new 0 7.528 22.604 21.404"
	 xml:space="preserve">
	<path fill="#5D9B59" d="M3.944,15.19c-0.268-0.162-0.517-0.311-0.75-0.45c-0.424-0.252-0.796-0.469-1.143-0.665
		c-0.659-0.373-1.226-0.67-1.878-0.992c-0.154-0.096,0.057,0.939,0.701,2.169c0.19,0.362,0.417,0.742,0.684,1.114
		c0.594,0.83,1.382,1.625,2.385,2.121c0.323,0.165,0.3,0.232,0.045,0.368c-1.138,0.542-1.972,1.304-2.574,2.09
		c-0.285,0.372-0.518,0.749-0.706,1.11c-0.675,1.295-0.782,2.392-0.67,2.332c0.217-0.142,1.108-0.617,1.935-1.067
		c0.4-0.218,1.173-0.652,1.173-0.652l7.432-3.993L3.944,15.19z"/>
	<polygon fill="#FFFFFF" points="8.038,9.924 7.297,10.661 7.404,10.554 	"/>
	<polygon fill="#576DB4" points="13.61,9.089 15.252,10.726 15.228,10.702 	"/>
	<path fill="#576DB4" d="M14.754,8.39c-0.372,0.193-0.762,0.426-1.145,0.7c-0.828,0.594-1.621,1.381-2.117,2.383
		c-0.165,0.322-0.232,0.3-0.367,0.045c-0.547-1.139-1.312-1.973-2.101-2.575c-0.377-0.289-0.76-0.523-1.126-0.713
		C6.608,7.56,5.522,7.455,5.586,7.566c0.14,0.216,0.609,1.096,1.058,1.917c0.221,0.406,0.438,0.798,0.606,1.088l0.047,0.088l4,7.445
		l3.493-6.611c0.167-0.275,0.319-0.53,0.46-0.769c0.255-0.432,0.474-0.812,0.672-1.166c0.364-0.651,0.657-1.216,0.974-1.858
		C16.993,7.549,15.974,7.756,14.754,8.39"/>
	<path fill="#F0494E" d="M22.565,13.083c-0.323,0.21-2.129,1.155-3.006,1.665l-7.534,4.048l6.634,3.493
		c1.687,1.02,2.608,1.522,3.793,2.106c0.3,0.188-0.787-3.928-3.771-5.405c-0.322-0.165-0.3-0.232-0.045-0.367
		C22.243,16.899,22.775,12.949,22.565,13.083"/>
	<path fill="#F5831F" d="M13.773,26.914c0.018-0.104,0.039-0.12,0.133-0.026c0.855,0.873,2.415,0.783,2.315,0.699
		c-0.339-0.347-0.62-0.611-1.167-1.083l-1.972-1.908l-0.554,3.09c-0.078,0.364-0.201,1.102-0.238,1.238
		C12.265,29.011,13.585,28.376,13.773,26.914"/>
	<path fill="#F5831F" d="M9.027,26.914c-0.018-0.104-0.039-0.12-0.133-0.026c-0.855,0.873-2.415,0.783-2.315,0.699
		c0.339-0.347,0.62-0.611,1.167-1.083l1.973-1.908l0.553,3.09c0.078,0.364,0.201,1.102,0.238,1.238
		C10.536,29.011,9.215,28.376,9.027,26.914"/>
	<path fill="#603A17" d="M18.235,17.708c0,3.409-3.078,6.172-6.875,6.172s-6.875-2.763-6.875-6.172c0-3.408,3.078-6.171,6.875-6.171
		S18.235,14.3,18.235,17.708"/>
	<path fill="#603A17" d="M14.014,24.212c0,0.493-0.448,0.893-1.001,0.893c-0.553,0-1-0.4-1-0.893c0-0.494,0.448-0.894,1-0.894
		C13.565,23.319,14.014,23.719,14.014,24.212"/>
	<path fill="#603A17" d="M10.79,24.212c0,0.493-0.448,0.893-1.001,0.893s-1.001-0.4-1.001-0.893c0-0.494,0.448-0.894,1.001-0.894
		S10.79,23.719,10.79,24.212"/>
	<path fill="#873F1D" d="M14.923,15.713c-0.113-1.202-1.087-2.167-2.29-2.271c-0.457-0.04-0.89,0.043-1.272,0.219
		c-0.383-0.175-0.816-0.258-1.272-0.219c-1.203,0.104-2.177,1.069-2.29,2.271c-0.022,0.241-0.011,0.476,0.03,0.7
		c0.087,0.477,0.177,0.953,0.233,1.435c0.347,2.963,1.691,5.105,3.298,5.105s2.952-2.142,3.298-5.105
		c0.056-0.481,0.146-0.958,0.233-1.434C14.934,16.188,14.945,15.954,14.923,15.713"/>
	<path fill="#D02127" d="M11.787,20.517l-0.426-1.776l-0.465,1.94c-0.175,0.73-0.403,1.446-0.638,2.16
		c-0.046,0.141-0.066,0.294-0.055,0.453c0.043,0.57,0.506,1.03,1.077,1.069c0.679,0.046,1.244-0.49,1.244-1.159
		c0-0.124-0.02-0.244-0.056-0.355C12.22,22.077,11.976,21.304,11.787,20.517"/>
	<path fill="#F2F2B3" d="M11.292,16.024c0,0.835-0.503,1.512-1.125,1.512c-0.621,0-1.125-0.677-1.125-1.512s0.504-1.512,1.125-1.512
		C10.788,14.512,11.292,15.189,11.292,16.024"/>
	<path fill="#F2F2B3" d="M13.69,16.024c0,0.835-0.503,1.512-1.125,1.512s-1.125-0.677-1.125-1.512s0.503-1.512,1.125-1.512
		S13.69,15.189,13.69,16.024"/>
	<path fill="#432834" d="M10.167,17.011c-0.284,0-0.6-0.277-0.6-0.675c0-0.397,0.316-0.674,0.6-0.674s0.6,0.277,0.6,0.674
		C10.767,16.734,10.451,17.011,10.167,17.011"/>
	<path fill="#432834" d="M12.566,17.011c-0.284,0-0.6-0.277-0.6-0.675c0-0.397,0.316-0.674,0.6-0.674s0.6,0.277,0.6,0.674
		C13.166,16.734,12.85,17.011,12.566,17.011"/>
	<path fill="#FBC83B" d="M11.361,16.642c-1.118,0-2.024,0.525-2.024,1.175c0,0.202,0.087,0.391,0.24,0.556
		c0.318,0.344,0.577,0.768,0.785,1.229l0.901,1.951c0.027,0.059,0.067,0.087,0.142,0.086v-4.998H11.361L11.361,16.642z"/>
	<path fill="#FBB03C" d="M11.405,16.636v5.003c0-0.001,0.069-0.03,0.095-0.087l0.87-1.951c0.208-0.461,0.461-0.885,0.779-1.229
		c0.154-0.166,0.259-0.356,0.259-0.558C13.408,17.164,12.455,16.637,11.405,16.636"/>
	<path fill="#D02127" d="M11.361,16.638c0,0,2.35,2.509,1.59,3.366c-0.437,0.492-0.694-0.2-0.834-0.878
		c-0.172-0.833-0.409-1.642-0.721-2.402L11.361,16.638z"/>
	<path fill="#F2F2B3" d="M10.024,15.977c0,0.086-0.07,0.156-0.156,0.156s-0.157-0.07-0.157-0.156s0.07-0.156,0.157-0.156
		S10.024,15.891,10.024,15.977"/>
	<path fill="#F2F2B3" d="M12.423,15.977c0,0.086-0.07,0.156-0.157,0.156c-0.086,0-0.156-0.07-0.156-0.156s0.07-0.156,0.156-0.156
		C12.353,15.821,12.423,15.891,12.423,15.977"/>
</svg>
